<svg width="26" height="25" viewBox="0 0 26 25" fill="none" xmlns="http://www.w3.org/2000/svg">
<path d="M15.7549 2.58409V5.41324H9.27353V2.58409H15.7549ZM16.6311 0.420898H8.39733C7.79153 0.420898 7.30103 0.958252 7.30103 1.62191V6.37313C7.30103 7.03678 7.79153 7.57414 8.39733 7.57414H16.6311C17.2369 7.57414 17.7274 7.03678 17.7274 6.37313V1.62191C17.7274 0.958252 17.2369 0.420898 16.6311 0.420898Z" fill="url(#paint0_linear_1_5603)"/>
<path d="M2.07953 5.46851H22.9512C23.8798 5.46851 24.6344 6.29291 24.6344 7.3125V22.735C24.6344 23.7523 23.8819 24.579 22.9512 24.579H2.07953C1.14883 24.579 0.396301 23.7523 0.396301 22.735V7.3125C0.396301 6.2952 1.14883 5.46851 2.07953 5.46851Z" fill="url(#paint1_linear_1_5603)"/>
<path d="M23.5988 4.62817H1.4296C0.639335 4.62817 0 5.32857 0 6.19431V12.4565C0 12.7046 0.113194 12.9319 0.30185 13.072C3.08139 15.1364 7.83343 16.2617 12.5142 16.365C17.195 16.2617 21.947 15.1364 24.7266 13.072C24.9131 12.9342 25.0284 12.7046 25.0284 12.4565V6.19431C25.0284 5.33087 24.3891 4.62817 23.5988 4.62817Z" fill="url(#paint2_linear_1_5603)"/>
<path d="M14.2855 16.1465V18.1467C14.2855 18.2592 14.1325 18.351 13.9438 18.351H11.0846C10.896 18.351 10.743 18.2592 10.743 18.1467V16.1465C10.743 16.034 10.896 15.9421 11.0846 15.9421H13.9438C14.1325 15.9421 14.2855 16.0317 14.2855 16.1465Z" fill="#FFCA28"/>
<path d="M14.7131 15.5171V15.9672C14.7131 16.1739 14.5601 16.3415 14.3714 16.3415H10.657C10.4684 16.3415 10.3153 16.1739 10.3153 15.9672V15.5171C10.3153 15.3105 10.4684 15.1428 10.657 15.1428H14.3694C14.5601 15.1428 14.7131 15.3105 14.7131 15.5171Z" fill="#F9A825"/>
<path opacity="0.2" d="M16.6311 1.10981C16.8889 1.10981 17.0985 1.33945 17.0985 1.62191V4.62787C17.0985 5.00907 17.3794 5.31679 17.7274 5.31679H23.5988C24.0411 5.31679 24.3995 5.70947 24.3995 6.19401V12.4563C24.3995 12.4723 24.3912 12.4884 24.3744 12.4999C24.366 12.5068 24.3576 12.5114 24.3471 12.5183C24.3262 12.532 24.3052 12.5458 24.2843 12.5619C24.1082 12.6905 24.0013 12.9063 24.0013 13.136V22.7349C24.0013 23.371 23.5275 23.8899 22.9469 23.8899H2.07941C1.49877 23.8899 1.02503 23.371 1.02503 22.7349V13.136C1.02503 12.904 0.918127 12.6882 0.742048 12.5619C0.721086 12.5481 0.700124 12.532 0.679163 12.5183C0.670778 12.5114 0.660297 12.5068 0.651912 12.4999C0.637239 12.4884 0.626758 12.4723 0.626758 12.4563V6.19401C0.626758 5.70947 0.985205 5.31679 1.4275 5.31679H7.2989C7.64687 5.31679 7.92776 5.00907 7.92776 4.62787V1.62191C7.92776 1.33945 8.13737 1.10981 8.3952 1.10981H16.6311ZM9.27351 5.31679H15.7549C16.1029 5.31679 16.3838 5.00907 16.3838 4.62787V2.58409C16.3838 2.20289 16.1029 1.89518 15.7549 1.89518H9.27351C8.92554 1.89518 8.64465 2.20289 8.64465 2.58409V4.62787C8.64465 5.00907 8.92764 5.31679 9.27351 5.31679ZM16.6311 0.420898H8.3973C7.79151 0.420898 7.301 0.958252 7.301 1.62191V4.62787H1.4296C0.639335 4.62787 0 5.32827 0 6.19401V12.4563C0 12.7043 0.113194 12.9316 0.30185 13.0717C0.331197 13.0946 0.364735 13.1153 0.396178 13.136V22.7349C0.396178 23.7545 1.1508 24.5789 2.07941 24.5789H22.9511C23.8797 24.5789 24.6343 23.7545 24.6343 22.7349V13.136C24.6658 13.113 24.6993 13.0923 24.7286 13.0717C24.9152 12.9339 25.0305 12.7043 25.0305 12.4563V6.19401C25.0305 5.32827 24.3912 4.62787 23.6009 4.62787H17.7274V1.62191C17.7274 0.958252 17.2369 0.420898 16.6311 0.420898ZM9.27351 4.62787V2.58409H15.7528V4.62787H9.27351Z" fill="#424242"/>
<defs>
<linearGradient id="paint0_linear_1_5603" x1="12.5142" y1="0.397016" x2="12.5142" y2="6.52492" gradientUnits="userSpaceOnUse">
<stop offset="0.0005936" stop-color="#A1887F"/>
<stop offset="0.2381" stop-color="#927971"/>
<stop offset="0.6929" stop-color="#6C524B"/>
<stop offset="1" stop-color="#4E342E"/>
</linearGradient>
<linearGradient id="paint1_linear_1_5603" x1="12.5143" y1="5.68391" x2="12.5143" y2="24.4412" gradientUnits="userSpaceOnUse">
<stop stop-color="#4E342E"/>
<stop offset="0.424" stop-color="#503630"/>
<stop offset="0.618" stop-color="#583D36"/>
<stop offset="0.7651" stop-color="#644941"/>
<stop offset="0.8878" stop-color="#765950"/>
<stop offset="0.9933" stop-color="#8D6E63"/>
</linearGradient>
<linearGradient id="paint2_linear_1_5603" x1="12.5142" y1="4.66262" x2="12.5142" y2="16.2669" gradientUnits="userSpaceOnUse">
<stop offset="0.0067402" stop-color="#BCAAA4"/>
<stop offset="1" stop-color="#6D4C41"/>
</linearGradient>
</defs>
</svg>
