<svg xmlns="http://www.w3.org/2000/svg" viewBox="0 0 100 100" id="charminar"><path fill="#ffedce" d="M61.3 67.1h6v23h-6z"></path><path fill="#8e7f8b" d="M65.3 83.1h-2v-2c0-.6.4-1 1-1s1 .4 1 1v2z"></path><path fill="#ffe9cf" d="M35.3 55.1h30v12h-30z"></path><path fill="#8e7f8b" d="M43.3 67.6v-5.5c0-2.3 2.1-3 2.1-3s1.9.7 1.9 3v5.5M37.3 67.6v-5.5c0-2.3 2.1-3 2.1-3s1.9.7 1.9 3v5.5"></path><path fill="#726571" d="M39.3 59.1s-2.1.8-2.1 3v2c0-2.3 2.1-3 2.1-3s1.9.7 1.9 3v-2c.1-2.3-1.9-3-1.9-3zm6 0s-2.1.8-2.1 3v2c0-2.3 2.1-3 2.1-3s1.9.7 1.9 3v-2c.1-2.3-1.9-3-1.9-3z"></path><path fill="#ffe9cf" d="M67.3 67.1h6v23h-6zM27.3 67.1h6v23h-6z"></path><path fill="#fff" d="M71.3 67.1h2v23h-2zM31.3 67.1h2v23h-2z"></path><path fill="#ffe9cf" d="M39.3 67.1v23h19-16V79.7c0-3.2 1.8-6.1 4.9-7.9l3.1-1.7 3.1 1.7c3.1 1.7 4.9 4.7 4.9 7.9v10.4h3v-23h-22z"></path><path fill="#fdd2af" d="M39.3 67.1h2v23h-2zM59.3 67.1h2v23h-2z"></path><path fill="#ffe9cf" d="M68.3 38.6h4v4.5h-4zM28.3 38.6h4v4.5h-4zM73.244 38.566h-6v-3h6z"></path><path fill="#ffedce" d="M33.244 38.566h-6v-3h6z"></path><path fill="#ffe9cf" d="M28.3 35.4v-3.6c0-.9.5-1.8 1.2-2.2l.8-.5.8.5c.8.5 1.2 1.3 1.2 2.2v3.6M68.3 35.4v-3.6c0-.9.5-1.8 1.2-2.2l.8-.5.8.5c.8.5 1.2 1.3 1.2 2.2v3.6"></path><path fill="#fdd2af" d="M28.3 38.6h4v2h-4zM68.3 38.6h4v2h-4z"></path><path fill="#ffe9cf" d="M68.3 47.1h4v8h-4z"></path><path fill="#ffedce" d="M65.3 55.1h10v12h-10z"></path><path fill="#fdd2af" d="M65.3 55.1h2v12h-2z"></path><path fill="#ffe9cf" d="M33.3 67.1h6v23h-6z"></path><circle cx="50.3" cy="61.1" r="1" fill="#ffd79e"></circle><path fill="#fdd2af" d="M33.3 67.1h34v2h-34zM27.3 67.1h6v2h-6z"></path><path fill="#fdd2af" d="M61.3 67.1h2v23h-2zM67.3 67.1h2v23h-2zM33.3 67.1h2v23h-2z"></path><path fill="#fff" d="M37.3 67.1h2v23h-2zM65.3 67.1h2v23h-2z"></path><path fill="#fdd2af" d="M27.3 67.1h2v23h-2z"></path><circle cx="42.3" cy="71.1" r="1" fill="#ffd79e"></circle><circle cx="58.3" cy="71.1" r="1" fill="#ffd79e"></circle><path fill="#ffe9cf" d="M25.3 55.1h10v12h-10z"></path><path fill="#fdd2af" d="M67.3 67.1h6v2h-6z"></path><path fill="#ffe9cf" d="M32.3 51h36v4h-36z"></path><path fill="#fdd2af" d="M32.3 51h2v4h-2zM66.3 51h2v4h-2zM35.3 55.1h2v12h-2zM25.3 55.1h2v12h-2z"></path><path fill="#8e7f8b" d="M53.3 67.6v-5.5c0-2.3 2.1-3 2.1-3s1.9.7 1.9 3v5.5M59.3 67.6v-5.5c0-2.3 2.1-3 2.1-3s1.9.7 1.9 3v5.5M37.3 73.1h-2v-2c0-.6.4-1 1-1s1 .4 1 1v2z"></path><path fill="#726571" d="M36.3 70.1c-.6 0-1 .4-1 1v1.5c0-.6.4-1 1-1s1 .4 1 1v-1.5c0-.6-.5-1-1-1z"></path><path fill="#8e7f8b" d="M37.3 78.1h-2v-2c0-.6.4-1 1-1s1 .4 1 1v2z"></path><path fill="#726571" d="M36.3 75.1c-.6 0-1 .4-1 1v1.5c0-.6.4-1 1-1s1 .4 1 1v-1.5c0-.6-.5-1-1-1z"></path><path fill="#8e7f8b" d="M37.3 83.1h-2v-2c0-.6.4-1 1-1s1 .4 1 1v2zM37.3 88.1h-2v-2c0-.6.4-1 1-1s1 .4 1 1v2zM65.3 73.1h-2v-2c0-.6.4-1 1-1s1 .4 1 1v2zM65.3 78.1h-2v-2c0-.6.4-1 1-1s1 .4 1 1v2zM65.3 88.1h-2v-2c0-.6.4-1 1-1s1 .4 1 1v2zM33.3 65.1h-2v-2c0-.6.4-1 1-1s1 .4 1 1v2zM33.3 60.1h-2v-2c0-.6.4-1 1-1s1 .4 1 1v2zM69.3 65.1h-2v-2c0-.6.4-1 1-1s1 .4 1 1v2zM69.3 60.1h-2v-2c0-.6.4-1 1-1s1 .4 1 1v2zM73.3 65.1h-2v-2c0-.6.4-1 1-1s1 .4 1 1v2zM73.3 60.1h-2v-2c0-.6.4-1 1-1s1 .4 1 1v2z"></path><path fill="#e3f4fd" d="M37.3 55.1h-2v-1c0-.6.4-1 1-1s1 .4 1 1v1zM41.3 55.1h-2v-1c0-.6.4-1 1-1s1 .4 1 1v1zM45.3 55.1h-2v-1c0-.6.4-1 1-1s1 .4 1 1v1zM49.3 55.1h-2v-1c0-.6.4-1 1-1s1 .4 1 1v1zM53.3 55.1h-2v-1c0-.6.4-1 1-1s1 .4 1 1v1zM57.3 55.1h-2v-1c0-.6.4-1 1-1s1 .4 1 1v1zM61.3 55.1h-2v-1c0-.6.4-1 1-1s1 .4 1 1v1zM65.3 55.1h-2v-1c0-.6.4-1 1-1s1 .4 1 1v1z"></path><path fill="#8e7f8b" d="M29.3 65.1h-2v-2c0-.6.4-1 1-1s1 .4 1 1v2zM29.3 60.1h-2v-2c0-.6.4-1 1-1s1 .4 1 1v2z"></path><path fill="#ffe9cf" d="M32.3 49h36v2h-36zM28.3 47.1h4v8h-4z"></path><path fill="#fdd2af" d="M27.8 35.5h1.5v3.1h-1.5zM67.8 35.5h1.5v3.1h-1.5z"></path><path fill="#ffe9cf" d="M34.244 47.066h-8v-4h8z"></path><path fill="#fdd2af" d="M28.3 47.1h4v2h-4zM68.3 47.1h4v2h-4z"></path><path fill="#ffe9cf" d="M74.244 47.066h-8v-4h8z"></path><path fill="#fff" d="M70.8 38.6h1.5v4.5h-1.5zM30.8 38.6h1.5v4.5h-1.5zM70.8 47.1h1.5v8h-1.5zM63.3 55.1h2v12h-2zM73.3 55.1h2v12h-2z"></path><path fill="#fff" d="M35.3 55.1h30v2h-30zM25.3 55.1h10v2h-10zM65.3 55.1h10v2h-10z"></path><path fill="#fff" d="M33.3 55.1h2v12h-2zM30.8 47.1h1.5v8h-1.5zM70.8 32.1h1.5v3.5h-1.5zM30.8 32.1h1.5v3.5h-1.5z"></path><path fill="#fff" d="M31.3 35.5h1.5v3.1h-1.5zM71.3 35.5h1.5v3.1h-1.5zM32.3 50.5h36v2h-36zM32.3 43.1h2v4h-2zM72.3 43.1h2v4h-2z"></path><path fill="#fdd2af" d="M26.3 43.1h2v4h-2zM66.3 43.1h2v4h-2z"></path><path fill="#594454" d="M77.3 90.7h-54c-.3 0-.5-.2-.5-.5s.2-.5.5-.5h54c.3 0 .5.2.5.5s-.3.5-.5.5z"></path><path fill="#594454" d="M58.3 90.6c-.3 0-.5-.2-.5-.5V79.7c0-3-1.7-5.8-4.7-7.4l-2.8-1.6-2.9 1.6c-2.9 1.6-4.6 4.4-4.6 7.4V90c0 .3-.2.5-.5.5s-.5-.2-.5-.5V79.7c0-3.4 1.9-6.5 5.2-8.3l3.1-1.7c.2-.1.3-.1.5 0l3.1 1.7c3.3 1.8 5.2 4.9 5.2 8.3v10.4c-.1.3-.4.5-.6.5zM41.3 68.1c-.3 0-.5-.2-.5-.5v-5.5c0-1.5-1-2.2-1.5-2.5-.4.2-1.5.9-1.5 2.5v5.5c0 .3-.2.5-.5.5s-.5-.2-.5-.5v-5.5c0-2.6 2.3-3.4 2.4-3.5h.3c.1 0 2.3.9 2.3 3.5v5.5c0 .3-.3.5-.5.5zM47.3 68.1c-.3 0-.5-.2-.5-.5v-5.5c0-1.5-1-2.2-1.5-2.5-.4.2-1.5.9-1.5 2.5v5.5c0 .3-.2.5-.5.5s-.5-.2-.5-.5v-5.5c0-2.6 2.3-3.4 2.4-3.5h.3c.1 0 2.3.9 2.3 3.5v5.5c0 .3-.3.5-.5.5z"></path><path fill="#594454" d="M61.3 90.6h-22c-.3 0-.5-.2-.5-.5v-23c0-.3.2-.5.5-.5h22c.3 0 .5.2.5.5v23c0 .3-.3.5-.5.5zm-21.5-1h21v-22h-21v22z"></path><path fill="#594454" d="M39.3 90.6h-6c-.3 0-.5-.2-.5-.5v-23c0-.3.2-.5.5-.5h6c.3 0 .5.2.5.5v23c0 .3-.3.5-.5.5zm-5.5-1h5v-22h-5v22z"></path><path fill="#594454" d="M33.3 90.6h-6c-.3 0-.5-.2-.5-.5v-23c0-.3.2-.5.5-.5h6c.3 0 .5.2.5.5v23c0 .3-.3.5-.5.5zm-5.5-1h5v-22h-5v22zM32.3 55.6h-4c-.3 0-.5-.2-.5-.5v-8c0-.3.2-.5.5-.5h4c.3 0 .5.2.5.5v8c0 .3-.3.5-.5.5zm-3.5-1h3v-7h-3v7zM32.3 43.6h-4c-.3 0-.5-.2-.5-.5v-4.5c0-.3.2-.5.5-.5h4c.3 0 .5.2.5.5v4.5c0 .3-.3.5-.5.5zm-3.5-1h3v-3.5h-3v3.5zM72.3 55.6h-4c-.3 0-.5-.2-.5-.5v-8c0-.3.2-.5.5-.5h4c.3 0 .5.2.5.5v8c0 .3-.3.5-.5.5zm-3.5-1h3v-7h-3v7z"></path><path fill="#594454" d="M35.3 67.6h-10c-.3 0-.5-.2-.5-.5v-12c0-.3.2-.5.5-.5h10c.3 0 .5.2.5.5v12c0 .3-.3.5-.5.5zm-9.5-1h9v-11h-9v11zM34.3 47.6h-8c-.3 0-.5-.2-.5-.5v-4c0-.3.2-.5.5-.5h8c.3 0 .5.2.5.5v4c0 .3-.3.5-.5.5zm-7.5-1h7v-3h-7v3zM33.3 39.1h-6c-.3 0-.5-.2-.5-.5v-3c0-.3.2-.5.5-.5h6c.3 0 .5.2.5.5v3c0 .3-.3.5-.5.5zm-5.5-1h5v-2h-5v2z"></path><path fill="#594454" d="M65.3 67.6h-30c-.3 0-.5-.2-.5-.5v-12c0-.3.2-.5.5-.5h30c.3 0 .5.2.5.5v12c0 .3-.3.5-.5.5zm-29.5-1h29v-11h-29v11z"></path><path fill="#594454" d="M68.3 55.6h-36c-.3 0-.5-.2-.5-.5v-4c0-.3.2-.5.5-.5h36c.3 0 .5.2.5.5v4c0 .3-.3.5-.5.5zm-35.5-1h35v-3h-35v3z"></path><path fill="#594454" d="M68.3 51.5h-36c-.3 0-.5-.2-.5-.5v-2c0-.3.2-.5.5-.5h36c.3 0 .5.2.5.5v2c0 .3-.3.5-.5.5zm-35.5-1h35v-1h-35v1zM37.3 73.6h-2c-.3 0-.5-.2-.5-.5v-2c0-.8.7-1.5 1.5-1.5s1.5.7 1.5 1.5v2c0 .3-.3.5-.5.5zm-1.5-1h1v-1.5c0-.3-.2-.5-.5-.5s-.5.2-.5.5v1.5zM37.3 78.6h-2c-.3 0-.5-.2-.5-.5v-2c0-.8.7-1.5 1.5-1.5s1.5.7 1.5 1.5v2c0 .3-.3.5-.5.5zm-1.5-1h1v-1.5c0-.3-.2-.5-.5-.5s-.5.2-.5.5v1.5zM37.3 83.6h-2c-.3 0-.5-.2-.5-.5v-2c0-.8.7-1.5 1.5-1.5s1.5.7 1.5 1.5v2c0 .3-.3.5-.5.5zm-1.5-1h1v-1.5c0-.3-.2-.5-.5-.5s-.5.2-.5.5v1.5zM37.3 88.6h-2c-.3 0-.5-.2-.5-.5v-2c0-.8.7-1.5 1.5-1.5s1.5.7 1.5 1.5v2c0 .3-.3.5-.5.5zm-1.5-1h1v-1.5c0-.3-.2-.5-.5-.5s-.5.2-.5.5v1.5zM65.3 78.6h-2c-.3 0-.5-.2-.5-.5v-2c0-.8.7-1.5 1.5-1.5s1.5.7 1.5 1.5v2c0 .3-.3.5-.5.5zm-1.5-1h1v-1.5c0-.3-.2-.5-.5-.5s-.5.2-.5.5v1.5zM65.3 88.6h-2c-.3 0-.5-.2-.5-.5v-2c0-.8.7-1.5 1.5-1.5s1.5.7 1.5 1.5v2c0 .3-.3.5-.5.5zm-1.5-1h1v-1.5c0-.3-.2-.5-.5-.5s-.5.2-.5.5v1.5z"></path><path fill="#594454" d="M37.3 73.6h-2c-.3 0-.5-.2-.5-.5v-2c0-.8.7-1.5 1.5-1.5s1.5.7 1.5 1.5v2c0 .3-.3.5-.5.5zm-1.5-1h1v-1.5c0-.3-.2-.5-.5-.5s-.5.2-.5.5v1.5zM37.3 78.6h-2c-.3 0-.5-.2-.5-.5v-2c0-.8.7-1.5 1.5-1.5s1.5.7 1.5 1.5v2c0 .3-.3.5-.5.5zm-1.5-1h1v-1.5c0-.3-.2-.5-.5-.5s-.5.2-.5.5v1.5zM37.3 83.6h-2c-.3 0-.5-.2-.5-.5v-2c0-.8.7-1.5 1.5-1.5s1.5.7 1.5 1.5v2c0 .3-.3.5-.5.5zm-1.5-1h1v-1.5c0-.3-.2-.5-.5-.5s-.5.2-.5.5v1.5zM37.3 88.6h-2c-.3 0-.5-.2-.5-.5v-2c0-.8.7-1.5 1.5-1.5s1.5.7 1.5 1.5v2c0 .3-.3.5-.5.5zm-1.5-1h1v-1.5c0-.3-.2-.5-.5-.5s-.5.2-.5.5v1.5zM65.3 78.6h-2c-.3 0-.5-.2-.5-.5v-2c0-.8.7-1.5 1.5-1.5s1.5.7 1.5 1.5v2c0 .3-.3.5-.5.5zm-1.5-1h1v-1.5c0-.3-.2-.5-.5-.5s-.5.2-.5.5v1.5zM65.3 88.6h-2c-.3 0-.5-.2-.5-.5v-2c0-.8.7-1.5 1.5-1.5s1.5.7 1.5 1.5v2c0 .3-.3.5-.5.5zm-1.5-1h1v-1.5c0-.3-.2-.5-.5-.5s-.5.2-.5.5v1.5z"></path><path fill="#726571" d="M32.3 62.1c-.6 0-1 .4-1 1v1c0-.6.4-1 1-1s1 .4 1 1v-1c0-.6-.5-1-1-1zm36 0c-.6 0-1 .4-1 1v1c0-.6.4-1 1-1s1 .4 1 1v-1c0-.6-.5-1-1-1zm0-5c-.6 0-1 .4-1 1v1c0-.6.4-1 1-1s1 .4 1 1v-1c0-.6-.5-1-1-1zm4 5c-.6 0-1 .4-1 1v1c0-.6.4-1 1-1s1 .4 1 1v-1c0-.6-.5-1-1-1zm0-5c-.6 0-1 .4-1 1v1c0-.6.4-1 1-1s1 .4 1 1v-1c0-.6-.5-1-1-1zm-44 5c-.6 0-1 .4-1 1v1c0-.6.4-1 1-1s1 .4 1 1v-1c0-.6-.5-1-1-1zm0-5c-.6 0-1 .4-1 1v1c0-.6.4-1 1-1s1 .4 1 1v-1c0-.6-.5-1-1-1zm4 0c-.6 0-1 .4-1 1v1c0-.6.4-1 1-1s1 .4 1 1v-1c0-.6-.5-1-1-1z"></path><path fill="#594454" d="M37.3 73.6h-2c-.3 0-.5-.2-.5-.5v-2c0-.8.7-1.5 1.5-1.5s1.5.7 1.5 1.5v2c0 .3-.3.5-.5.5zm-1.5-1h1v-1.5c0-.3-.2-.5-.5-.5s-.5.2-.5.5v1.5zM37.3 78.6h-2c-.3 0-.5-.2-.5-.5v-2c0-.8.7-1.5 1.5-1.5s1.5.7 1.5 1.5v2c0 .3-.3.5-.5.5zm-1.5-1h1v-1.5c0-.3-.2-.5-.5-.5s-.5.2-.5.5v1.5zM29.3 65.6h-2c-.3 0-.5-.2-.5-.5v-2c0-.8.7-1.5 1.5-1.5s1.5.7 1.5 1.5v2c0 .3-.3.5-.5.5zm-1.5-1h1v-1.5c0-.3-.2-.5-.5-.5s-.5.2-.5.5v1.5zM29.3 60.6h-2c-.3 0-.5-.2-.5-.5v-2c0-.8.7-1.5 1.5-1.5s1.5.7 1.5 1.5v2c0 .3-.3.5-.5.5zm-1.5-1h1v-1.5c0-.3-.2-.5-.5-.5s-.5.2-.5.5v1.5zM33.3 65.6h-2c-.3 0-.5-.2-.5-.5v-2c0-.8.7-1.5 1.5-1.5s1.5.7 1.5 1.5v2c0 .3-.3.5-.5.5zm-1.5-1h1v-1.5c0-.3-.2-.5-.5-.5s-.5.2-.5.5v1.5zM33.3 60.6h-2c-.3 0-.5-.2-.5-.5v-2c0-.8.7-1.5 1.5-1.5s1.5.7 1.5 1.5v2c0 .3-.3.5-.5.5zm-1.5-1h1v-1.5c0-.3-.2-.5-.5-.5s-.5.2-.5.5v1.5zM69.3 65.6h-2c-.3 0-.5-.2-.5-.5v-2c0-.8.7-1.5 1.5-1.5s1.5.7 1.5 1.5v2c0 .3-.3.5-.5.5zm-1.5-1h1v-1.5c0-.3-.2-.5-.5-.5s-.5.2-.5.5v1.5zM69.3 60.6h-2c-.3 0-.5-.2-.5-.5v-2c0-.8.7-1.5 1.5-1.5s1.5.7 1.5 1.5v2c0 .3-.3.5-.5.5zm-1.5-1h1v-1.5c0-.3-.2-.5-.5-.5s-.5.2-.5.5v1.5zM73.3 65.6h-2c-.3 0-.5-.2-.5-.5v-2c0-.8.7-1.5 1.5-1.5s1.5.7 1.5 1.5v2c0 .3-.3.5-.5.5zm-1.5-1h1v-1.5c0-.3-.2-.5-.5-.5s-.5.2-.5.5v1.5zM73.3 60.6h-2c-.3 0-.5-.2-.5-.5v-2c0-.8.7-1.5 1.5-1.5s1.5.7 1.5 1.5v2c0 .3-.3.5-.5.5zm-1.5-1h1v-1.5c0-.3-.2-.5-.5-.5s-.5.2-.5.5v1.5zM37.3 55.6h-2c-.3 0-.5-.2-.5-.5v-1c0-.8.7-1.5 1.5-1.5s1.5.7 1.5 1.5v1c0 .3-.3.5-.5.5zm-1.5-1h1v-.5c0-.3-.2-.5-.5-.5s-.5.2-.5.5v.5zM41.3 55.6h-2c-.3 0-.5-.2-.5-.5v-1c0-.8.7-1.5 1.5-1.5s1.5.7 1.5 1.5v1c0 .3-.3.5-.5.5zm-1.5-1h1v-.5c0-.3-.2-.5-.5-.5s-.5.2-.5.5v.5zM45.3 55.6h-2c-.3 0-.5-.2-.5-.5v-1c0-.8.7-1.5 1.5-1.5s1.5.7 1.5 1.5v1c0 .3-.3.5-.5.5zm-1.5-1h1v-.5c0-.3-.2-.5-.5-.5s-.5.2-.5.5v.5zM49.3 55.6h-2c-.3 0-.5-.2-.5-.5v-1c0-.8.7-1.5 1.5-1.5s1.5.7 1.5 1.5v1c0 .3-.3.5-.5.5zm-1.5-1h1v-.5c0-.3-.2-.5-.5-.5s-.5.2-.5.5v.5zM53.3 55.6h-2c-.3 0-.5-.2-.5-.5v-1c0-.8.7-1.5 1.5-1.5s1.5.7 1.5 1.5v1c0 .3-.3.5-.5.5zm-1.5-1h1v-.5c0-.3-.2-.5-.5-.5s-.5.2-.5.5v.5zM57.3 55.6h-2c-.3 0-.5-.2-.5-.5v-1c0-.8.7-1.5 1.5-1.5s1.5.7 1.5 1.5v1c0 .3-.3.5-.5.5zm-1.5-1h1v-.5c0-.3-.2-.5-.5-.5s-.5.2-.5.5v.5zM61.3 55.6h-2c-.3 0-.5-.2-.5-.5v-1c0-.8.7-1.5 1.5-1.5s1.5.7 1.5 1.5v1c0 .3-.3.5-.5.5zm-1.5-1h1v-.5c0-.3-.2-.5-.5-.5s-.5.2-.5.5v.5zM65.3 55.6h-2c-.3 0-.5-.2-.5-.5v-1c0-.8.7-1.5 1.5-1.5s1.5.7 1.5 1.5v1c0 .3-.3.5-.5.5zm-1.5-1h1v-.5c0-.3-.2-.5-.5-.5s-.5.2-.5.5v.5zM30.3 46.6c-.3 0-.5-.2-.5-.5v-1c0-.3.2-.5.5-.5s.5.2.5.5v1c0 .3-.3.5-.5.5zM28.3 47.1c-.3 0-.5-.2-.5-.5v-1.5c0-.3.2-.5.5-.5s.5.2.5.5v1.5c0 .3-.3.5-.5.5zM32.3 47.1c-.3 0-.5-.2-.5-.5v-1.5c0-.3.2-.5.5-.5s.5.2.5.5v1.5c0 .3-.3.5-.5.5z"></path><path fill="#594454" d="M30.3 47.1c-.3 0-.5-.2-.5-.5v-1.5c0-.3.2-.5.5-.5s.5.2.5.5v1.5c0 .3-.3.5-.5.5zM74.3 47.6h-8c-.3 0-.5-.2-.5-.5v-4c0-.3.2-.5.5-.5h8c.3 0 .5.2.5.5v4c0 .3-.3.5-.5.5zm-7.5-1h7v-3h-7v3z"></path><path fill="#594454" d="M70.3 47.1c-.3 0-.5-.2-.5-.5v-1.5c0-.3.2-.5.5-.5s.5.2.5.5v1.5c0 .3-.3.5-.5.5zM68.3 47.1c-.3 0-.5-.2-.5-.5v-1.5c0-.3.2-.5.5-.5s.5.2.5.5v1.5c0 .3-.3.5-.5.5zM72.3 47.1c-.3 0-.5-.2-.5-.5v-1.5c0-.3.2-.5.5-.5s.5.2.5.5v1.5c0 .3-.3.5-.5.5zM75.3 67.6h-10c-.3 0-.5-.2-.5-.5v-12c0-.3.2-.5.5-.5h10c.3 0 .5.2.5.5v12c0 .3-.3.5-.5.5zm-9.5-1h9v-11h-9v11z"></path><path fill="#594454" d="M67.3 90.6h-6c-.3 0-.5-.2-.5-.5v-23c0-.3.2-.5.5-.5h6c.3 0 .5.2.5.5v23c0 .3-.3.5-.5.5zm-5.5-1h5v-22h-5v22z"></path><path fill="#594454" d="M73.3 90.6h-6c-.3 0-.5-.2-.5-.5v-23c0-.3.2-.5.5-.5h6c.3 0 .5.2.5.5v23c0 .3-.3.5-.5.5zm-5.5-1h5v-22h-5v22zM42.3 72.6c-.8 0-1.5-.7-1.5-1.5s.7-1.5 1.5-1.5 1.5.7 1.5 1.5-.7 1.5-1.5 1.5zm0-2c-.3 0-.5.2-.5.5s.2.5.5.5.5-.2.5-.5-.3-.5-.5-.5zM58.3 72.6c-.8 0-1.5-.7-1.5-1.5s.7-1.5 1.5-1.5 1.5.7 1.5 1.5-.7 1.5-1.5 1.5zm0-2c-.3 0-.5.2-.5.5s.2.5.5.5.5-.2.5-.5-.3-.5-.5-.5zM50.3 62.6c-.8 0-1.5-.7-1.5-1.5s.7-1.5 1.5-1.5 1.5.7 1.5 1.5-.7 1.5-1.5 1.5zm0-2c-.3 0-.5.2-.5.5s.2.5.5.5.5-.2.5-.5-.3-.5-.5-.5zM41.3 68.6c-.3 0-.5-.2-.5-.5v-1c0-.3.2-.5.5-.5s.5.2.5.5v1c0 .3-.3.5-.5.5zM43.3 68.6c-.3 0-.5-.2-.5-.5v-1c0-.3.2-.5.5-.5s.5.2.5.5v1c0 .3-.3.5-.5.5zM35.3 68.6c-.3 0-.5-.2-.5-.5v-1c0-.3.2-.5.5-.5s.5.2.5.5v1c0 .3-.3.5-.5.5zM37.3 68.6c-.3 0-.5-.2-.5-.5v-1c0-.3.2-.5.5-.5s.5.2.5.5v1c0 .3-.3.5-.5.5zM41.3 56.6c-.3 0-.5-.2-.5-.5v-1c0-.3.2-.5.5-.5s.5.2.5.5v1c0 .3-.3.5-.5.5zM39.3 56.6c-.3 0-.5-.2-.5-.5v-1c0-.3.2-.5.5-.5s.5.2.5.5v1c0 .3-.3.5-.5.5zM43.3 56.6c-.3 0-.5-.2-.5-.5v-1c0-.3.2-.5.5-.5s.5.2.5.5v1c0 .3-.3.5-.5.5zM37.3 56.6c-.3 0-.5-.2-.5-.5v-1c0-.3.2-.5.5-.5s.5.2.5.5v1c0 .3-.3.5-.5.5zM49.3 56.6c-.3 0-.5-.2-.5-.5v-1c0-.3.2-.5.5-.5s.5.2.5.5v1c0 .3-.3.5-.5.5zM47.3 56.6c-.3 0-.5-.2-.5-.5v-1c0-.3.2-.5.5-.5s.5.2.5.5v1c0 .3-.3.5-.5.5zM51.3 56.6c-.3 0-.5-.2-.5-.5v-1c0-.3.2-.5.5-.5s.5.2.5.5v1c0 .3-.3.5-.5.5zM45.3 56.6c-.3 0-.5-.2-.5-.5v-1c0-.3.2-.5.5-.5s.5.2.5.5v1c0 .3-.3.5-.5.5zM57.3 56.6c-.3 0-.5-.2-.5-.5v-1c0-.3.2-.5.5-.5s.5.2.5.5v1c0 .3-.3.5-.5.5zM55.3 56.6c-.3 0-.5-.2-.5-.5v-1c0-.3.2-.5.5-.5s.5.2.5.5v1c0 .3-.3.5-.5.5zM59.3 56.6c-.3 0-.5-.2-.5-.5v-1c0-.3.2-.5.5-.5s.5.2.5.5v1c0 .3-.3.5-.5.5zM53.3 56.6c-.3 0-.5-.2-.5-.5v-1c0-.3.2-.5.5-.5s.5.2.5.5v1c0 .3-.3.5-.5.5zM63.3 56.6c-.3 0-.5-.2-.5-.5v-1c0-.3.2-.5.5-.5s.5.2.5.5v1c0 .3-.3.5-.5.5zM61.3 56.6c-.3 0-.5-.2-.5-.5v-1c0-.3.2-.5.5-.5s.5.2.5.5v1c0 .3-.3.5-.5.5zM45.3 68.6c-.3 0-.5-.2-.5-.5v-1c0-.3.2-.5.5-.5s.5.2.5.5v1c0 .3-.3.5-.5.5zM47.3 68.6c-.3 0-.5-.2-.5-.5v-1c0-.3.2-.5.5-.5s.5.2.5.5v1c0 .3-.3.5-.5.5zM49.3 68.6c-.3 0-.5-.2-.5-.5v-1c0-.3.2-.5.5-.5s.5.2.5.5v1c0 .3-.3.5-.5.5zM51.3 68.6c-.3 0-.5-.2-.5-.5v-1c0-.3.2-.5.5-.5s.5.2.5.5v1c0 .3-.3.5-.5.5zM53.3 68.6c-.3 0-.5-.2-.5-.5v-1c0-.3.2-.5.5-.5s.5.2.5.5v1c0 .3-.3.5-.5.5zM55.3 68.6c-.3 0-.5-.2-.5-.5v-1c0-.3.2-.5.5-.5s.5.2.5.5v1c0 .3-.3.5-.5.5zM57.3 68.6c-.3 0-.5-.2-.5-.5v-1c0-.3.2-.5.5-.5s.5.2.5.5v1c0 .3-.3.5-.5.5zM59.3 68.6c-.3 0-.5-.2-.5-.5v-1c0-.3.2-.5.5-.5s.5.2.5.5v1c0 .3-.3.5-.5.5zM63.3 68.6c-.3 0-.5-.2-.5-.5v-1c0-.3.2-.5.5-.5s.5.2.5.5v1c0 .3-.3.5-.5.5zM65.3 68.6c-.3 0-.5-.2-.5-.5v-1c0-.3.2-.5.5-.5s.5.2.5.5v1c0 .3-.3.5-.5.5zM32.3 35.9c-.3 0-.5-.2-.5-.5v-3.6c0-.7-.4-1.4-1-1.8l-.5-.3-.5.3c-.6.4-1 1.1-1 1.8v3.6c0 .3-.2.5-.5.5s-.5-.2-.5-.5v-3.6c0-1.1.5-2.1 1.5-2.7l.8-.5c.2-.1.4-.1.5 0l.8.5c.9.6 1.5 1.6 1.5 2.7v3.6c-.1.3-.4.5-.6.5z"></path><path fill="#594454" d="M30.3 29.6c-.3 0-.5-.2-.5-.5v-2c0-.3.2-.5.5-.5s.5.2.5.5v2c0 .3-.3.5-.5.5zM30.3 35.6c-.3 0-.5-.2-.5-.5v-1c0-.3.2-.5.5-.5s.5.2.5.5v1c0 .3-.3.5-.5.5zM29.3 38.6c-.3 0-.5-.2-.5-.5v-.5c0-.3.2-.5.5-.5s.5.2.5.5v.5c0 .3-.3.5-.5.5zM31.3 38.6c-.3 0-.5-.2-.5-.5v-.5c0-.3.2-.5.5-.5s.5.2.5.5v.5c0 .3-.3.5-.5.5zM32.3 32.6h-3.5c-.3 0-.5-.2-.5-.5s.2-.5.5-.5h3.5c.3 0 .5.2.5.5s-.3.5-.5.5zM72.3 43.6h-4c-.3 0-.5-.2-.5-.5v-4.5c0-.3.2-.5.5-.5h4c.3 0 .5.2.5.5v4.5c0 .3-.3.5-.5.5zm-3.5-1h3v-3.5h-3v3.5z"></path><path fill="#594454" d="M73.3 39.1h-6c-.3 0-.5-.2-.5-.5v-3c0-.3.2-.5.5-.5h6c.3 0 .5.2.5.5v3c0 .3-.3.5-.5.5zm-5.5-1h5v-2h-5v2z"></path><path fill="#594454" d="M72.3 35.9c-.3 0-.5-.2-.5-.5v-3.6c0-.7-.4-1.4-1-1.8l-.5-.3-.5.3c-.6.4-1 1.1-1 1.8v3.6c0 .3-.2.5-.5.5s-.5-.2-.5-.5v-3.6c0-1.1.5-2.1 1.5-2.7l.8-.5c.2-.1.4-.1.5 0l.8.5c.9.6 1.5 1.6 1.5 2.7v3.6c-.1.3-.4.5-.6.5z"></path><path fill="#594454" d="M70.3 29.6c-.3 0-.5-.2-.5-.5v-2c0-.3.2-.5.5-.5s.5.2.5.5v2c0 .3-.3.5-.5.5zM70.3 35.6c-.3 0-.5-.2-.5-.5v-1c0-.3.2-.5.5-.5s.5.2.5.5v1c0 .3-.3.5-.5.5zM69.3 38.6c-.3 0-.5-.2-.5-.5v-.5c0-.3.2-.5.5-.5s.5.2.5.5v.5c0 .3-.3.5-.5.5zM71.3 38.6c-.3 0-.5-.2-.5-.5v-.5c0-.3.2-.5.5-.5s.5.2.5.5v.5c0 .3-.3.5-.5.5zM72.3 32.6h-3.5c-.3 0-.5-.2-.5-.5s.2-.5.5-.5h3.5c.3 0 .5.2.5.5s-.3.5-.5.5z"></path><path fill="#726571" d="M55.3 59.1s-2.1.8-2.1 3v2c0-2.3 2.1-3 2.1-3s1.9.7 1.9 3v-2c.1-2.3-1.9-3-1.9-3zm6 0s-2.1.8-2.1 3v2c0-2.3 2.1-3 2.1-3s1.9.7 1.9 3v-2c.1-2.3-1.9-3-1.9-3z"></path><path fill="#594454" d="M57.3 68.1c-.3 0-.5-.2-.5-.5v-5.5c0-1.5-1-2.2-1.5-2.5-.4.2-1.5.9-1.5 2.5v5.5c0 .3-.2.5-.5.5s-.5-.2-.5-.5v-5.5c0-2.6 2.3-3.4 2.4-3.5h.3c.1 0 2.3.9 2.3 3.5v5.5c0 .3-.3.5-.5.5zM63.3 68.1c-.3 0-.5-.2-.5-.5v-5.5c0-1.5-1-2.2-1.5-2.5-.4.2-1.5.9-1.5 2.5v5.5c0 .3-.2.5-.5.5s-.5-.2-.5-.5v-5.5c0-2.6 2.3-3.4 2.4-3.5h.3c.1 0 2.3.9 2.3 3.5v5.5c0 .3-.3.5-.5.5z"></path><path fill="#726571" d="M36.3 80.1c-.6 0-1 .4-1 1v1.5c0-.6.4-1 1-1s1 .4 1 1v-1.5c0-.6-.5-1-1-1zm0 5c-.6 0-1 .4-1 1v1.5c0-.6.4-1 1-1s1 .4 1 1v-1.5c0-.6-.5-1-1-1zm28-15c-.6 0-1 .4-1 1v1.5c0-.6.4-1 1-1s1 .4 1 1v-1.5c0-.6-.5-1-1-1zm0 5c-.6 0-1 .4-1 1v1.5c0-.6.4-1 1-1s1 .4 1 1v-1.5c0-.6-.5-1-1-1zm0 5c-.6 0-1 .4-1 1v1.5c0-.6.4-1 1-1s1 .4 1 1v-1.5c0-.6-.5-1-1-1zm0 5c-.6 0-1 .4-1 1v1.5c0-.6.4-1 1-1s1 .4 1 1v-1.5c0-.6-.5-1-1-1z"></path><path fill="#594454" d="M37.3 83.6h-2c-.3 0-.5-.2-.5-.5v-2c0-.8.7-1.5 1.5-1.5s1.5.7 1.5 1.5v2c0 .3-.3.5-.5.5zm-1.5-1h1v-1.5c0-.3-.2-.5-.5-.5s-.5.2-.5.5v1.5zM37.3 88.6h-2c-.3 0-.5-.2-.5-.5v-2c0-.8.7-1.5 1.5-1.5s1.5.7 1.5 1.5v2c0 .3-.3.5-.5.5zm-1.5-1h1v-1.5c0-.3-.2-.5-.5-.5s-.5.2-.5.5v1.5zM65.3 73.6h-2c-.3 0-.5-.2-.5-.5v-2c0-.8.7-1.5 1.5-1.5s1.5.7 1.5 1.5v2c0 .3-.3.5-.5.5zm-1.5-1h1v-1.5c0-.3-.2-.5-.5-.5s-.5.2-.5.5v1.5zM65.3 78.6h-2c-.3 0-.5-.2-.5-.5v-2c0-.8.7-1.5 1.5-1.5s1.5.7 1.5 1.5v2c0 .3-.3.5-.5.5zm-1.5-1h1v-1.5c0-.3-.2-.5-.5-.5s-.5.2-.5.5v1.5zM65.3 88.6h-2c-.3 0-.5-.2-.5-.5v-2c0-.8.7-1.5 1.5-1.5s1.5.7 1.5 1.5v2c0 .3-.3.5-.5.5zm-1.5-1h1v-1.5c0-.3-.2-.5-.5-.5s-.5.2-.5.5v1.5zM65.3 83.6h-2c-.3 0-.5-.2-.5-.5v-2c0-.8.7-1.5 1.5-1.5s1.5.7 1.5 1.5v2c0 .3-.3.5-.5.5zm-1.5-1h1v-1.5c0-.3-.2-.5-.5-.5s-.5.2-.5.5v1.5z"></path></svg>