<svg width="108" height="108" viewBox="0 0 108 108" fill="none" xmlns="http://www.w3.org/2000/svg">
<path fill-rule="evenodd" clip-rule="evenodd" d="M57.5882 0H49.9096V33.9978L37.1738 2.47558L30.0545 5.35196L43.1203 37.6908L18.4574 13.0279L13.028 18.4574L36.6662 42.0956L6.03283 28.7116L2.95865 35.7478L35.3724 49.9096H0V57.5882H35.3723L2.95867 71.7499L6.03283 78.7862L36.6662 65.4022L13.028 89.0404L18.4574 94.4696L43.1203 69.8069L30.0545 102.146L37.1738 105.022L49.9096 73.5V107.498H57.5882V73.5L70.3239 105.022L77.443 102.146L64.3777 69.8069L89.0404 94.4696L94.4696 89.0404L70.8313 65.4022L101.465 78.7862L104.539 71.7499L72.1256 57.5882H107.498V49.9096H72.1251L104.539 35.7478L101.465 28.7116L70.8313 42.0956L94.4696 18.4574L89.0404 13.0279L64.3777 37.6908L77.443 5.35196L70.3239 2.47558L57.5882 33.9978V0Z" fill="#525FE1"/>
</svg>
