<svg width="117" height="48" viewBox="0 0 117 48" fill="none" xmlns="http://www.w3.org/2000/svg">
<g clip-path="url(#clip0_1_5642)">
<path d="M37.8465 21.4076C37.8465 19.346 35.7849 17.1469 32.3489 17.1469C28.5005 17.1469 24.1024 20.0332 23.4152 25.8057C22.728 31.5782 26.3015 34.1896 30.0124 34.1896C33.7233 34.1896 35.51 32.8152 37.4342 30.891C35.7849 28.8294 33.5858 29.7915 33.1735 29.9289C32.7612 30.2038 32.074 30.4787 30.9744 30.4787C29.6 30.4787 28.0882 29.7915 28.0882 27.1801C37.1593 26.218 37.8465 23.4692 37.8465 21.4076ZM33.4484 21.6825C33.4484 22.3697 33.1735 23.4692 28.6379 24.019C29.6 20.5829 31.3868 20.3081 32.2114 20.3081C33.0361 20.4455 33.4484 20.9953 33.4484 21.6825ZM18.1925 22.2322C18.1925 22.2322 16.2683 28.2796 16.1308 28.8294C16.1308 28.2796 14.619 17.4218 14.619 17.4218C11.3204 17.4218 9.53369 19.7583 8.70904 22.2322C8.70904 22.2322 6.37255 28.2796 6.23511 28.8294C6.09767 28.4171 5.82279 22.3697 5.82279 22.3697C5.5479 19.346 2.79909 17.4218 0.600037 17.4218L3.34885 33.9147C6.78487 33.9147 8.70904 31.5782 9.67113 29.1043C9.67113 29.1043 11.7327 23.7441 11.8702 23.4692C11.8702 23.7441 13.382 33.9147 13.382 33.9147C16.818 33.9147 18.7422 31.7156 19.7043 29.3791L24.5147 17.4218C20.9413 17.4218 19.1545 19.7583 18.1925 22.2322ZM50.6285 17.0095C48.5669 17.0095 46.9176 18.109 45.5432 19.8957L46.6427 10C43.7564 10 41.5574 12.4739 41.0076 16.0474L38.8086 33.7772C40.4579 33.7772 42.1071 33.3649 43.0692 32.128C43.8939 33.2275 45.1308 34.0521 46.9176 34.0521C51.728 34.0521 55.0266 28.5545 55.0266 23.3318C55.164 18.5213 52.8275 17.0095 50.6285 17.0095ZM50.0787 25.5308C49.5289 28.4171 48.0171 30.3412 46.3678 30.3412C44.856 30.3412 44.1688 29.654 44.1688 29.654C44.4436 27.1801 44.7185 25.5308 45.2683 24.1564C45.818 22.782 47.1925 20.7204 48.5669 20.7204C49.9413 20.8578 50.6285 22.6446 50.0787 25.5308ZM67.1214 17.4218H63.8228V17.2844C64.0977 15.0853 64.51 13.9858 66.2967 13.8483C67.3962 13.7109 67.946 13.1611 68.0834 12.4739C68.2209 11.9242 68.4958 10.1374 68.4958 10.1374C61.7612 10.1374 59.6996 13.0237 59.1498 17.4218V17.5592H59.0124C57.9128 17.5592 56.6759 18.7962 56.5384 20.3081L56.401 20.8578H58.6L56.6759 36.2512L56.1261 39C56.2635 39 56.2635 39 56.401 39C59.5621 38.8626 61.4863 36.3886 62.0361 32.8152L63.5479 20.7204H64.6474C65.6095 20.7204 66.8465 19.7583 67.1214 17.9716V17.4218ZM84.4389 17.1469C80.5906 17.1469 77.0171 20.0332 75.9176 24.4313C74.818 28.8294 76.4673 34.1896 82.1024 34.1896C87.7375 34.1896 91.0361 28.6919 91.0361 24.1564C90.8986 19.6209 87.8749 17.1469 84.4389 17.1469ZM85.9507 25.3934C85.8133 27.455 84.8512 30.4787 82.3773 30.4787C79.9034 30.4787 80.3157 26.9052 80.4531 25.2559C80.728 23.4692 81.6901 20.8578 83.8891 20.8578C85.9507 20.8578 86.2256 23.1943 85.9507 25.3934ZM110.003 22.2322C110.003 22.2322 108.079 28.2796 107.941 28.8294C107.941 28.2796 106.429 17.4218 106.429 17.4218C103.131 17.4218 101.344 19.7583 100.519 22.2322C100.519 22.2322 98.183 28.2796 98.0455 28.8294C98.0455 28.4171 97.6332 22.3697 97.6332 22.3697C97.4958 19.346 94.6095 17.5592 92.4105 17.5592L95.1593 34.0521C98.5953 34.0521 100.519 31.7156 101.482 29.2417C101.482 29.2417 103.543 23.8815 103.681 23.6066C103.681 23.8815 105.192 34.0521 105.192 34.0521C108.628 34.0521 110.553 31.8531 111.515 29.5166L116.05 17.4218C112.614 17.4218 110.828 19.7583 110.003 22.2322ZM70.2825 10.1374L67.5337 32.6777L66.9839 35.4265C67.1214 35.4265 67.1214 35.4265 67.2588 35.4265C70.2825 35.4265 72.4816 32.6777 72.7564 29.3791L74.4057 16.4597C74.818 12.6114 72.3441 10.1374 70.2825 10.1374Z" fill="#6E7175"/>
</g>
<defs>
<clipPath id="clip0_1_5642">
<rect width="116" height="48" fill="white" transform="translate(0.600037)"/>
</clipPath>
</defs>
</svg>
