<svg width="122" height="48" viewBox="0 0 122 48" fill="none" xmlns="http://www.w3.org/2000/svg">
<g clip-path="url(#clip0_1_5640)">
<path d="M38.7251 32.4263L40.1932 28.9949C41.8006 30.1853 43.8973 30.8154 45.9945 30.8154C47.5323 30.8154 48.5107 30.2204 48.5107 29.3101C48.4756 26.7889 39.2493 28.7498 39.1792 22.4112C39.1441 19.1897 42.0102 16.7036 46.0646 16.7036C48.4756 16.7036 50.8875 17.2991 52.5997 18.6649L51.2279 22.1696C49.6525 21.1566 47.7067 20.4503 45.8546 20.4503C44.5965 20.4503 43.7575 21.0453 43.7575 21.8162C43.7925 24.3023 53.0894 22.9364 53.1942 28.9949C53.1942 32.2865 50.3978 34.5977 46.4135 34.5977C43.4783 34.5977 40.7871 33.8975 38.7246 32.4263H38.7251ZM97.1831 27.7523C96.8125 28.4108 96.2735 28.9588 95.6212 29.3402C94.969 29.7216 94.227 29.9226 93.4714 29.9227C91.1166 29.9227 89.2079 28.0099 89.2079 25.6506C89.2079 23.2913 91.1166 21.3786 93.4714 21.3786C94.227 21.3787 94.969 21.5797 95.6212 21.9611C96.2735 22.3425 96.8125 22.8905 97.1831 23.549L101.265 21.2834C99.7359 18.5511 96.8197 16.7036 93.4714 16.7036C88.5398 16.7036 84.5419 20.709 84.5419 25.6506C84.5419 30.5918 88.5398 34.5977 93.4714 34.5977C96.8197 34.5977 99.7359 32.7501 101.265 30.0179L97.1831 27.7523ZM55.8427 34.2473H60.9453V9.25574H55.8432L55.8427 34.2473ZM103.841 9.25574V34.2473H108.944V26.7599L114.99 34.2473H121.513L113.824 25.3524L120.953 17.0524H114.711L108.944 23.953V9.25574H103.841ZM76.6655 17.0535V19.085C75.827 17.684 73.7649 16.7036 71.598 16.7036C67.1245 16.7036 63.5948 20.6608 63.5948 25.6331C63.5948 30.6053 67.1245 34.5977 71.598 34.5977C73.7649 34.5977 75.827 33.6173 76.6655 32.2163V34.2473H81.7681V17.0535H76.6655ZM76.6655 27.7869C75.9317 29.0124 74.3939 29.9222 72.6817 29.9222C70.3264 29.9222 68.4177 28.0099 68.4177 25.6506C68.4177 23.2913 70.3264 21.3786 72.6817 21.3786C74.3939 21.3786 75.9317 22.3239 76.6655 23.584V27.7869Z" fill="#6E7175"/>
<path d="M11.7783 8.70361C10.1247 8.70361 8.7844 10.0469 8.7844 11.7035C8.78401 12.0971 8.86114 12.4868 9.01138 12.8506C9.16162 13.2143 9.38204 13.5449 9.66004 13.8235C9.93805 14.1021 10.2682 14.3231 10.6317 14.4741C10.9951 14.6251 11.3847 14.703 11.7783 14.7034H14.7727V11.7035C14.7733 10.9086 14.4582 10.1461 13.8967 9.58348C13.3352 9.0209 12.5732 8.70441 11.7783 8.70361ZM11.7783 16.7033H3.79411C2.14053 16.7033 0.800232 18.0466 0.800232 19.7037C0.800232 21.3603 2.14053 22.7036 3.79411 22.7036H11.7788C13.4319 22.7036 14.7727 21.3603 14.7727 19.7037C14.7727 18.0466 13.4319 16.7033 11.7783 16.7033Z" fill="#6E7175"/>
<path d="M30.7411 19.7037C30.7411 18.0466 29.4003 16.7033 27.7467 16.7033C26.0932 16.7033 24.7528 18.0466 24.7528 19.7037V22.7036H27.7467C28.5416 22.7028 29.3036 22.3863 29.8651 21.8237C30.4267 21.2612 30.7418 20.4986 30.7411 19.7037ZM22.7569 19.7037V11.7035C22.7576 10.9086 22.4425 10.1461 21.881 9.58348C21.3194 9.0209 20.5574 8.70441 19.7626 8.70361C18.109 8.70361 16.7687 10.0469 16.7687 11.7035V19.7032C16.7687 21.3608 18.109 22.7041 19.7626 22.7041C20.5574 22.7033 21.3194 22.3868 21.881 21.8242C22.4425 21.2617 22.7576 20.4991 22.7569 19.7042" fill="#6E7175"/>
<path d="M19.7626 38.7036C20.5575 38.7028 21.3195 38.3863 21.881 37.8237C22.4426 37.2612 22.7577 36.4986 22.757 35.7037C22.7577 34.9088 22.4426 34.1463 21.881 33.5837C21.3195 33.0211 20.5575 32.7046 19.7626 32.7038H16.7687V35.7037C16.7687 37.3603 18.109 38.7036 19.7626 38.7036ZM19.7626 30.7039H27.7473C29.4004 30.7039 30.7412 29.3606 30.7412 27.7035C30.7418 26.9086 30.4267 26.1461 29.8652 25.5835C29.3037 25.0209 28.5417 24.7044 27.7468 24.7036H19.7626C18.109 24.7036 16.7687 26.0469 16.7687 27.7035C16.7683 28.0971 16.8455 28.4868 16.9957 28.8506C17.146 29.2143 17.3664 29.5449 17.6444 29.8235C17.9224 30.1021 18.2525 30.3231 18.616 30.4741C18.9794 30.6251 19.3691 30.703 19.7626 30.7034" fill="#6E7175"/>
<path d="M0.799989 27.7035C0.799594 28.0971 0.87672 28.4868 1.02696 28.8506C1.1772 29.2143 1.39762 29.5449 1.67563 29.8235C1.95364 30.1021 2.28379 30.3231 2.64724 30.4741C3.01068 30.6251 3.40031 30.703 3.79387 30.7034C4.58874 30.7026 5.35074 30.3861 5.91228 29.8235C6.47382 29.261 6.78891 28.4984 6.78824 27.7035V24.7036H3.79387C2.14029 24.7036 0.799989 26.0469 0.799989 27.7035ZM8.78416 27.7035V35.7032C8.78416 37.3603 10.1245 38.7036 11.778 38.7036C12.5729 38.7028 13.3349 38.3863 13.8965 37.8237C14.458 37.2612 14.7731 36.4986 14.7724 35.7037V27.7035C14.7728 27.3099 14.6957 26.9201 14.5454 26.5563C14.3951 26.1925 14.1747 25.8619 13.8966 25.5833C13.6185 25.3048 13.2883 25.0837 12.9248 24.9327C12.5613 24.7818 12.1716 24.7039 11.778 24.7036C10.1245 24.7036 8.78416 26.0469 8.78416 27.7035Z" fill="#6E7175"/>
</g>
<defs>
<clipPath id="clip0_1_5640">
<rect width="121" height="48" fill="white" transform="translate(0.799988)"/>
</clipPath>
</defs>
</svg>
