<svg width="98" height="48" viewBox="0 0 98 48" fill="none" xmlns="http://www.w3.org/2000/svg">
<g clip-path="url(#clip0_1_5643)">
<path fill-rule="evenodd" clip-rule="evenodd" d="M79.7073 20.5972C80.0815 21.2429 80.204 21.9774 80.2444 22.8032L80.2975 23.9039V31.6007L80.3518 32.7025C80.4604 34.502 81.7874 35.8325 83.6007 35.9457L84.6968 36V23.9039L84.7511 22.8032C84.7962 21.9867 84.9174 21.2382 85.2974 20.588C85.6846 19.921 86.2405 19.3677 86.9092 18.9835C87.5779 18.5993 88.3359 18.3978 89.1071 18.3992C89.8783 18.4006 90.6355 18.6049 91.3028 18.9915C91.9701 19.3781 92.5239 19.9335 92.9087 20.6018C93.2829 21.2475 93.3996 21.9959 93.4446 22.8032L93.4989 23.9005V31.6007L93.5532 32.7025C93.6664 34.5112 94.983 35.8418 96.8021 35.9457L97.8982 36V22.8032C97.8982 20.4697 96.9714 18.2317 95.3217 16.5813C93.672 14.9309 91.4343 14.0032 89.1007 14.0023C87.8518 14.001 86.6169 14.2662 85.4786 14.7803C84.3403 15.2944 83.3249 16.0454 82.5001 16.9833C81.6749 16.0458 80.6594 15.2949 79.5212 14.7807C78.383 14.2665 77.1483 14.0007 75.8994 14.0012C74.0722 14.0012 72.3767 14.5555 70.9722 15.513C70.1152 14.5567 68.198 14.0012 67.0973 14.0012V36L68.198 35.9457C70.039 35.8244 71.3695 34.5297 71.4412 32.7025L71.5001 31.6007V23.9039L71.5543 22.8032C71.6005 21.9728 71.716 21.2429 72.0914 20.5926C72.4789 19.9261 73.0345 19.3728 73.7027 18.9882C74.3709 18.6035 75.1283 18.4009 75.8994 18.4005C76.671 18.4006 77.429 18.6037 78.0973 18.9893C78.7657 19.3748 79.3209 19.9294 79.7073 20.5972ZM4.39937 35.9469L5.50006 36H21.9989L21.9446 34.9028C21.7956 33.0941 20.5148 31.7728 18.7003 31.655L17.5996 31.6007H7.70145L20.8982 18.3993L20.8439 17.3032C20.7585 15.4761 19.4233 14.1559 17.5996 14.0554L16.4989 14.0058L6.10352e-05 14.0012L0.0543449 15.1019C0.198717 16.8932 1.49807 18.2422 3.29752 18.3462L4.39937 18.4005H14.2975L1.10075 31.6018L1.15504 32.7025C1.26361 34.5159 2.57219 35.8291 4.39937 35.9457V35.9469ZM62.7788 17.2212C63.8004 18.2426 64.6108 19.4552 65.1637 20.7898C65.7166 22.1244 66.0011 23.5548 66.0011 24.9994C66.0011 26.444 65.7166 27.8744 65.1637 29.209C64.6108 30.5436 63.8004 31.7562 62.7788 32.7776C60.7149 34.8399 57.9166 35.9983 54.9989 35.9983C52.0812 35.9983 49.2829 34.8399 47.219 32.7776C42.9236 28.4823 42.9236 21.5166 47.219 17.2212C48.2396 16.2002 49.4514 15.3902 50.7851 14.8375C52.1188 14.2848 53.5483 14.0002 54.992 14C56.438 13.999 57.87 14.2831 59.2062 14.836C60.5423 15.3889 61.7564 16.1999 62.7788 17.2224V17.2212ZM59.6662 20.3362C60.9034 21.5744 61.5984 23.2531 61.5984 25.0035C61.5984 26.7538 60.9034 28.4326 59.6662 29.6707C58.428 30.908 56.7493 31.6029 54.9989 31.6029C53.2485 31.6029 51.5698 30.908 50.3316 29.6707C49.0944 28.4326 48.3994 26.7538 48.3994 25.0035C48.3994 23.2531 49.0944 21.5744 50.3316 20.3362C51.5698 19.099 53.2485 18.404 54.9989 18.404C56.7493 18.404 58.428 19.099 59.6662 20.3362ZM31.9063 14C33.3501 14.0004 34.7796 14.2851 36.1133 14.8381C37.447 15.391 38.6587 16.2012 39.6793 17.2224C43.9758 21.5166 43.9758 28.4834 39.6793 32.7776C37.6153 34.8399 34.817 35.9983 31.8994 35.9983C28.9817 35.9983 26.1834 34.8399 24.1194 32.7776C19.8241 28.4823 19.8241 21.5166 24.1194 17.2212C25.1401 16.2002 26.3519 15.3902 27.6856 14.8375C29.0193 14.2848 30.4488 14.0002 31.8924 14H31.9063ZM36.5666 20.3339C37.8042 21.5721 38.4994 23.2511 38.4994 25.0017C38.4994 26.7524 37.8042 28.4314 36.5666 29.6696C35.3285 30.9068 33.6497 31.6018 31.8994 31.6018C30.149 31.6018 28.4703 30.9068 27.2321 29.6696C25.9949 28.4314 25.2999 26.7527 25.2999 25.0023C25.2999 23.252 25.9949 21.5732 27.2321 20.335C28.4703 19.0978 30.149 18.4028 31.8994 18.4028C33.6497 18.4028 35.3285 19.0978 36.5666 20.335V20.3339Z" fill="#6E7175"/>
</g>
<defs>
<clipPath id="clip0_1_5643">
<rect width="98" height="48" fill="white"/>
</clipPath>
</defs>
</svg>
