<svg width="134" height="48" viewBox="0 0 134 48" fill="none" xmlns="http://www.w3.org/2000/svg">
<g clip-path="url(#clip0_1_5641)">
<path d="M14.835 6H0.200012V41L14.835 6Z" fill="#6E7175"/>
<path d="M25.1321 6H39.7481V41L25.1321 6Z" fill="#6E7175"/>
<path d="M19.9837 18.8998L29.2986 41H23.1872L20.4032 33.9638H13.5862L19.9837 18.8998Z" fill="#6E7175"/>
<path d="M63.6236 28.2578L65.3493 33.206C65.4065 33.33 65.4923 33.3872 65.6448 33.3872H68.9627C69.1439 33.3872 69.1725 33.3014 69.1439 33.1202L62.2888 14.0804C62.2602 13.9279 62.2316 13.8993 62.079 13.8993H57.9603C57.8459 13.8993 57.7791 13.9851 57.7791 14.109C57.7219 15.1101 57.6361 15.4152 57.5122 15.7108L51.4008 33.0916C51.3721 33.3014 51.4389 33.3872 51.6105 33.3872H54.5756C54.7568 33.3872 54.8426 33.33 54.9093 33.1488L56.5397 28.2578H63.6236ZM57.4836 25.0257C58.3798 22.318 59.562 18.8475 60.0387 16.8644H60.0673C60.6585 18.9429 62.0504 23.0616 62.6797 25.0257H57.4836Z" fill="#6E7175"/>
<path d="M77.9567 33.6827C79.7396 33.6827 81.6369 33.3585 83.5628 32.5291C83.7154 32.4719 83.744 32.4051 83.744 32.2621C83.6868 31.7282 83.62 30.9559 83.62 30.3648V12.4405C83.62 12.3261 83.62 12.2689 83.477 12.2689H80.2449C80.121 12.2689 80.0638 12.3261 80.0638 12.4787V18.552C79.5585 18.4947 79.2057 18.4661 78.7862 18.4661C73.571 18.4661 70.3675 21.908 70.3675 26.2079C70.3675 31.1943 73.6568 33.6827 77.9567 33.6827ZM80.0638 30.3648C79.5299 30.5364 78.9387 30.6032 78.3381 30.6032C75.9736 30.6032 74.0382 29.2684 74.0382 26.0268C74.0382 23.157 76.0308 21.4599 78.6718 21.4599C79.2057 21.4599 79.6729 21.5171 80.0638 21.6696V30.3648Z" fill="#6E7175"/>
<path d="M94.0548 18.4662C89.6024 18.4662 86.847 21.8794 86.847 26.0935C86.847 29.8595 89.0398 33.6828 93.9881 33.6828C98.1736 33.6828 101.11 30.6032 101.11 25.9982C101.11 21.9366 98.6217 18.4662 94.0548 18.4662ZM93.8737 21.4599C96.3907 21.4599 97.4585 23.6242 97.4585 26.0935C97.4585 29.1445 95.8854 30.6604 94.0548 30.6604C91.7952 30.6604 90.4604 28.7631 90.4604 26.0268C90.4604 23.2142 91.881 21.4599 93.8737 21.4599Z" fill="#6E7175"/>
<path d="M104.452 12.2689C104.328 12.2689 104.242 12.3261 104.242 12.4787V32.7674C104.242 32.8532 104.328 33.0058 104.452 33.0344C105.872 33.4729 107.36 33.6827 108.895 33.6827C113.29 33.6827 117.561 30.9559 117.561 25.4642C117.561 21.4885 114.834 18.4661 110.563 18.4661C109.581 18.4661 108.666 18.6187 107.865 18.8856L107.827 12.5073C107.827 12.2975 107.77 12.2689 107.56 12.2689H104.452ZM113.91 25.8265C113.91 29.1158 111.66 30.6604 109.228 30.6604C108.723 30.6604 108.275 30.6318 107.865 30.5078V21.8508C108.332 21.6696 108.895 21.5171 109.934 21.5171C112.279 21.5171 113.91 23.0044 113.91 25.8265Z" fill="#6E7175"/>
<path d="M129.623 26.8944C131.072 26.8944 132.264 26.8658 132.674 26.7705C132.827 26.7419 132.884 26.6847 132.913 26.5607C132.998 26.2365 133.037 25.5596 133.037 24.7301C133.037 21.908 131.339 18.4662 126.954 18.4662C122.473 18.4662 119.984 22.1178 119.984 26.2365C119.984 29.8881 121.91 33.6828 127.307 33.6828C129.328 33.6828 130.634 33.3586 131.759 32.8247C131.873 32.7675 131.931 32.6721 131.931 32.5005V30.0312C131.931 29.8881 131.845 29.8595 131.759 29.9167C130.634 30.3935 129.414 30.6318 128.079 30.6318C125.056 30.6318 123.684 28.9633 123.598 26.8944H129.623ZM123.598 24.3392C123.836 22.8901 124.751 21.3169 126.801 21.3169C129.061 21.3169 129.652 23.2142 129.652 24.0723C129.652 24.1009 129.652 24.2248 129.652 24.3106C129.528 24.3392 129.147 24.3392 128.022 24.3392H123.598Z" fill="#6E7175"/>
</g>
<defs>
<clipPath id="clip0_1_5641">
<rect width="133" height="48" fill="white" transform="translate(0.200012)"/>
</clipPath>
</defs>
</svg>
