<svg xmlns="http://www.w3.org/2000/svg" version="1.1" viewBox="175 89 1637 825">
<path transform="translate(405,106)" d="m0 0h11l9 4 5 4h18l7 2 4 4v2l6-2h12l4 5 1 12 7 4 1 1v10l-5 5-4 3h-2l-2 6h-2l-2 4-5 5h-2v2l-3 2-4 20v11l1 15-1 3-11 6-9 17-5 6-10 7-10 3-4 1-14 1 1 4 9 9 2 4v13l-1 4 6 13 4 10 9 29 7 29 2 9v5l11-4 15-8 12-6 4-1v-2l12-6 11-6 11-4 12 1 4-3h3v-2l4-2 8-10 5-5 12-10 11-4 9-7h2v-2l11-8 4-3h5l3 5-1 4-10 7-4 4-2 20-4 10-5 5-11 7-15 7h-2v6l-10 7-2 1-1 10-6 8-9 8-20 13-11 6-16 9-25 13-5 3h-2v15l-2 16-4 11-8 11-10 7h-2l3 9 8 15 8 18 8 15 10 21 8 16 8 15 3 7 6 11 3 8 8 15 8 17 8 15 10 21 16 32 10 21 8 15 8 17 8 16 8 15 5 2 10-1 20-6 12-6h8l3 2v6l-5 5-18 14-16 11-5 2v2l-10 7-11 6-2 1h-6l-2-1-4-19-4-9-9-11-11-13-8-10-2-4h-2l-7-9v-2h-2l-9-11v-2h-2l-7-9v-2h-2l-11-14-9-10-8-10-5-6v-2h-2l-11-14-12-14-11-13v-2h-2l-6-8-1-3h-2l-8-10-1-3h-2l-5-7-10 10-9 4-9 2-22 1-8 2-8 17-8 15-8 16-8 17-8 15-24 48-5 9-3 8-6 10-4 9-7 13 1 4 7 6 8 4 24 7 7 2 3 2 1 5-1 3-3 2h-43l-10-1-23-1-9-3-1-2v-6l6-10 4-14 4-23 3-14 4-23 3-14 1-9 1-2 1-9 1-2 3-19 4-18 1-9 1-2 3-20 4-18v-4l-5-2-16-4-12-4-15-8-5-4-4-6-2-7v-20l4-18 7-21 5-11 8-18 6-11 5-13 8-19 1-5-8 2-6 9-4 7-8 7-5 3h-4l-1-3-5 1-8 3h-8l-3-2v-9l3-12 8-7 18-14 3-2 2-6 9-11 2-5 1-7 3-8 16-24 8-11 14-18 18-22 2-3h2l2-5 5-6h2v-2h2l2-5 2-4h-16l-6-5-2-4 1-6 2-5 8-9 4-3-2-5-4-9v-12l7-8 5-3 16-6 21-7 14-3 3-5 4-8 1-8-5-5-6-9-5-16v-27l3-17 4-15 5-12 6-12 7-9 7-7 4-2h8l1 1h6l5-3zm-150 410-2 1-6 21-1 4 8 4 10 3 7 2 4-3 2-12 2-8-17-8-5-4z" fill="#243540"/>
<path transform="translate(1178,104)" d="m0 0h20l14 7 3 2v2l4 2 10 12 8-4 5-3 8-2h22l13 4 10 6 13 5 9 8 7 13 2 7v15l-4 9-6 8-4 3 1 4 7 4 5 3 1 3-4 9-4 5-2 7-2 13-6 9-6 4-14 3-13 1-1 1v26l12 16 8 11 7 8 7 6 6 10 2 7 2 11 6 9 9 17 4 8 4 12 2 2 10 3 6 4 1 7-5 10-10 16-3 5v3l4 2v9l-7 8-8 5-5 1-13-1-9-3 2 9 3 11 3 7 6 17 8 21 6 16 6 17 5 12 6 16 5 12 13 32 4 10 4 8 22 46 15 32 8 17 7 15 8 16 4 9 9 19 8 17v3l9 2h9l18-3 10-3h10v5l-5 6h-2v2l-14 11-21 14-8 4h-5l-5-5v-2h-2l-6-11-3-5v-3h-2l-8-11-9-12-13-17-10-13-8-11-10-13-8-11-10-13-13-17-8-11-14-18-11-15-8-11-6-7-25 1h-26l-15-1-5-1h-9l-22 36-26 42-11 17-11 18-8 12-6 11-7 11-15 24-4 6-5 16v11l3 8 11 7 4 5v5l-9 1-30-1-3-2-1-3-1-22-3-12 1-7 12-11 3-3 5-14 5-11 7-18 6-16 3-6 3-9 16-40 10-26 11-27 9-22v-3l-8-5v-2l-5-2-6-5-1-3v-8l4-13 8-17 8-15 4-9 5-21 2-15 1-14 4-12 10-19 9-14 2-4v-3l-14-2-12-6-8-8-4-9-1-9 3-18 14-42 7-27 5-22 4-9 7-8 14-10 12-7 6-8 3-3v-24l-12-7-12-11-6-9-3-3-5 11-8 17-9 16-7 11-10 14-8 10-7 9-2 6v12l3 8 3 6-3 1-7-6-5-9-3-10v-16l6-18 1-5v-15l-2-16-3-13-3-16-4-14-2-10-1-14v-17l1-12 5-15 4-8 9-12 11-8 8-4z" fill="#FD5E71"/>
<path transform="translate(854,89)" d="m0 0h14l9 3 7 4 3 2v2h2l5 6 8 6 12 6 5 5 4 7 2 5v7l-4 10-2 8-3 34-7 14-2 7-4 9-5 5-10 5-7 14-10 11-6 4v18l6-4h9l10 7 8 3 5 5 9 10 8 12 6 11 12 24 10 26 3 7 4 13 1 6v10l-5 13-9 10-6 5-7 2-1 6v40l-1 1-9 1-2 22-4 9-7 6 1 20 3 32 1 19 1 6 3 44 2 20 1 25v21l-2 11-4 15-3 8-6 17-5 12-4 10-5 11-4 10-11 24-5 10-3 8-9 15-3 8v11l1 4v13l-1 1-9-1-13-6-3-1 1 7v12l-4 2h-26l-14-2-2-1v-5l12-16 2-7v-23l-1-4-1-13-1-4-1-15-1-5-2-26-1-8-1-21-1-9-1-26-1-8-1-33-1-16v-153l-4-5-1-5-2 1-1 10-1 41-1 2 2 16 3 7v5l-5 4 4 14-2 4-5 2-3 4-6-1-8-6-4-6-2-5-1-13 1-17 1-9-1-2-2-19-1-25-1-10v-22l3-25 3-26 2-13 1-13 1-4 1-13 3-21 2-19 4-16 7-11 8-8 6-4 3-10 5-6 11-6 13-5 13-2 6-2v-15l-4-4-6-4-5-4v-2h-2l-9-13-2-4-10-5-6-7-2-5-2-7-6-12-4-17-8-15-2-4v-12l5-6h2v-2l8-6 6-8 6-11h2v-2h2v-2l8-5 6-2 14-1 7-7 8-5zm-2 547-3 16-1 17-1 6-1 17-1 5-1 14-4 28-3 28-3 20-2 17-3 20-3 26-1 7 4-1 6-8 1-1 3-15 6-20 3-14 6-21 4-16 3-15 4-16 2-12v-16l-4-21-3-15-3-12-4-18z" fill="#65CBBE"/>
<path transform="translate(1724,109)" d="m0 0 16 2 12 5 11 7 11 11 6 10 5 12 2 22 1 42 1 7 1 17 3 17 4 15 8 24 4 15 2 11 1 14v17l-1 12-2 9-5 12-9 14-7 9v30l1 84 2 15v16l-7 14-6 9h-2v2l-4 2-2 17-1 20-1 6-1 16-1 5-1 14-4 25-3 7-8 14-8 16-7 12-6 12-12 21-6 12-6 11-8 14-2 4-2-2-1 10-2 24-1 28-4 8-7 8-9 4-3 1-18 1-7-1-3-4 4-6 10-10 6-5 5-9 2-7-1-26-1-4-4-41-2-21-1-5-1-16-1-5-1-17-3-25-3-30-1-16-1-5-1-18-1-5-1-17-1-7-3-42v-15l3-29v-5l-12-4-6-4-6-7-2-8 1-14 4-24-10-3-10-4-6-4-4-5-1-3v-11l5-12 16-24 2-5-2-16v-24l2-15 4-14 9-16 8-11 4-8 3-9 2-13 1-51 2-20 3-13 4-13 8-13 8-7 6-3 8-2 11-1 8-6 10-4zm34 322-7 3-2 1v9l6 12 3 10 5 12h2v-21l-2-22-1-4zm-50 167-1 2-1 16-1 6-1 21-1 8-1 20-2 19v18l3-1 8-15 3-5v-20l-2-23-3-46zm-9 111-1 10 1 6h1v-16z" fill="#FDC6B3"/>
<path transform="translate(405,106)" d="m0 0h11l9 4 5 4h18l7 2 4 4v2l6-2h12l4 5 1 12 7 4 1 1v10l-5 5-4 3h-2l-2 6h-2l-2 4-5 5h-2v2l-3 2-4 20v11l1 15-1 3-11 6-9 17-5 6-10 7-10 3-4 1-14 1 1 4 9 9 2 4v13l-1 4 6 13 4 10 9 29 7 29 2 9v5l11-4 15-8 12-6 4-1v-2l12-6 11-6 11-4 12 1 4-3h3v-2l4-2 8-10 5-5 12-10 11-4 9-7h2v-2l11-8 4-3h5l3 5-1 4-10 7-4 4-2 20-4 10-5 5-11 7-15 7h-2v6l-10 7-2 1-1 10-6 8-9 8-20 13-11 6-16 9-25 13-5 3h-2v15l-2 16-4 11-8 11-10 7h-2l2 9-3-3v-5l-6 3-13 3-20 3-10 2-21 2h-43l-15-2-7-3 6 8 11 13 9 11 11 13 9 11 11 13 9 11 11 13 4 5v2l-4-2-14-17-11-13-9-11-11-13-9-11-11-13-9-11-5-6v-3l-9-3-11-6-6-3 1-4-2-4v-21l6-22 2-7 9-27 3-6 4-13 5-13 4-10 5-11 5-14 5-11h-2l-2 4v-3l3-6h-16l-6-5-2-4 1-6 2-5 8-9 4-3-2-5-4-9v-12l7-8 5-3 16-6 21-7 14-3 3-5 4-8 1-8-5-5-6-9-5-16v-27l3-17 4-15 5-12 6-12 7-9 7-7 4-2h8l1 1h6l5-3z" fill="#23343F"/>
<path transform="translate(1178,104)" d="m0 0h20l14 7 3 2v2l4 2 10 12 8-4 5-3 8-2h22l13 4 10 6 13 5 9 8 7 13 2 7v15l-4 9-6 8-4 3 1 4 7 4 5 3 1 3-4 9-4 5-2 7-2 13-6 9-6 4-14 3-13 1-1 1v26l12 16 8 11 7 8 7 6 6 10 2 7 2 11 6 9 9 17 4 8 4 12 2 2 10 3 6 4 1 7-5 10-10 16-3 5v3l4 2v9l-7 8-8 5-5 1-13-1-9-3 2 9 2 6-1 4-4-11-2-9-13-6-19-7-27-11-18-8h-2l-2 5-8 14-1 1h-18l-12-6-8-8-4-9-1-9 3-18 14-42 7-27 5-22 4-9 7-8 14-10 12-7 6-8 3-3v-24l-12-7-12-11-6-9-3-3-5 11-8 17-9 16-7 11-10 14-8 10-7 9-2 6v12l3 8 3 6-3 1-7-6-5-9-3-10v-16l6-18 1-5v-15l-2-16-3-13-3-16-4-14-2-10-1-14v-17l1-12 5-15 4-8 9-12 11-8 8-4z" fill="#FDC7B4"/>
<path transform="translate(786,496)" d="m0 0 15 8 18 5 6 1h34l22-4 20-6 2 19 1 10 1 1 3 41 1 7 1 19 1 6 3 44 2 20 1 25v21l-2 11-4 15-3 8-6 17-5 12-4 10-5 11-4 10-11 24-5 10-3 8-9 15-3 8v11l1 4v13l-1 1-9-1-13-6-3-1 1 7v12l-4 2h-26l-14-2-2-1v-5l12-16 2-7v-23l-1-4-1-13-1-4-1-15-1-5-2-26-1-34-1-5-1-28-1-8-2-53v-120l1-25v-13zm66 140-3 16-1 17-1 6-1 17-1 5-1 14-4 28-3 28-3 20-2 17-3 20-3 26-1 7 4-1 6-8 1-1 3-15 6-20 3-14 6-21 4-16 3-15 4-16 2-12v-16l-4-21-3-15-3-12-4-18z" fill="#23343F"/>
<path transform="translate(1749,449)" d="m0 0 4 1 5 11 2 6 2 10 3 9 4 23 2 18 1 16v42l-2 17-1 20-1 6-1 16-1 5-1 14-4 25-3 7-8 14-8 16-7 12-6 12-12 21-6 12-6 11-8 14-2 4-2-2-1 10-2 24-1 28-4 8-7 8-9 4-3 1-18 1-7-1-3-4 4-6 10-10 6-5 5-9 2-7-1-26-1-4-4-41-2-21-1-5-1-16-1-5-1-17-3-25-3-30-1-16-1-5-1-18-1-5-1-17-1-7-3-42v-15l2-20 2-8v-8l6-20 6-14 7-11 6-5 7 1 9 3 12 2h30l16-4zm-41 149-1 2-1 16-1 6-1 21-1 8-1 20-2 19v18l3-1 8-15 3-5v-20l-2-23-3-46zm-9 111-1 10 1 6h1v-16z" fill="#0476AD"/>
<path transform="translate(413,520)" d="m0 0h3l2 8 3 1 11 23 8 17 8 15 8 17 8 16 6 11 3 7 6 11 3 8 8 15 8 17 8 15 10 21 16 32 10 21 8 15 8 17 8 16 8 15 5 2 10-1 20-6 12-6h8l3 2v6l-5 5-18 14-16 11-5 2v2l-10 7-11 6-2 1h-6l-2-1-4-19-4-9-9-11-11-13-8-10-2-4h-2l-7-9v-2h-2l-9-11v-2h-2l-7-9v-2h-2l-11-14-9-10-8-10-5-6v-2h-2l-11-14-12-14-11-13v-2h-2l-6-8-1-3h-2l-8-10-1-3h-2l-5-7-10 10-9 4-9 2-22 1-8 1 2-5 18-36 6-13 2-1-8-10-11-13-9-11-11-13-9-11-11-13-9-11-11-13-2-5 7 2 15 2h43l28-3 10-2 13-2 15-4z" fill="#243540"/>
<path transform="translate(1724,109)" d="m0 0 16 2 12 5 11 7 11 11 6 10 5 12 2 22 1 42 1 7 1 17 3 17 4 15 8 24 4 15 2 11 1 14v17l-1 12-2 9-5 12-9 14-4 5h-3l-2-18-2-35-2-27-2-6-8-6-20-11-26-16-1-6v-11l10-4 6-4 7-8 7-14 1-3 11-4 7-8 2-7v-8l-2-5h-7l-3 1 1-15 2-18h-8l-16-3-19-7-12-8-8-8-4-6v-3h-2l-3 10-9 17-8 10-7 5-9 1 3 25-4-1h-7l-2 4v10l4 9 1 3 4 2 10 4 7 13 11 12 11 7v17l-5-1h-7l-16 8-6 4-2 6h2l6 8 2 10 2 20v48l-2 22h-10l-5 6-2 4h-7l-5-5-8-7-6-6 1-5 10-11 9-11v-2l-12-9-12-15-10 13-2 3h-2l-2-20v-14l1-20 4-14 9-16 8-11 4-8 3-9 2-13 1-51 2-20 3-13 4-13 8-13 8-7 6-3 8-2 11-1 8-6 10-4z" fill="#263642"/>
<path transform="translate(854,89)" d="m0 0h14l9 3 7 4 3 2v2h2l5 6 8 6 12 6 5 5 4 7 2 5v7l-4 10-2 8-3 34-7 14-2 7-4 9-5 5-10 5-7 14-10 11-6 4v18l6-4h9v1l-8 1-7 4-5 8-5 3-10-1-7-4-3-5v-2l-2-1 2-1v-15l-4-4-6-4-5-4v-2h-2l-9-13-2-4-10-5-6-7-2-5-2-7-6-12-4-17-8-15-2-4v-12l5-6h2v-2l8-6 6-8 6-11h2v-2h2v-2l8-5 6-2 14-1 7-7 8-5z" fill="#FDC6B3"/>
<path transform="translate(1178,104)" d="m0 0h20l14 7 3 2v2l4 2 10 12 8-4 5-3 8-2h22l13 4 10 6 13 5 9 8 7 13 2 7v15l-4 9-6 8-6 4-4-4-3-12v-10l-2-13-5-12-3-1-2 4-9 11-11 18-12 25-5 12-2-2-3-6-5-4h-6l-3 3-2 7 1 10 6 10 4 4v12l-7-1-13-10-9-10-3-6h-3l-5 13-8 15-6 12-5 7-4 7-10 14-8 10-7 9-2 6v12l3 8 3 6-3 1-7-6-5-9-3-10v-16l6-18 1-5v-15l-2-16-3-13-3-16-4-14-2-10-1-14v-17l1-12 5-15 4-8 9-12 11-8 8-4z" fill="#263642"/>
<path transform="translate(323,313)" d="m0 0h1v63l2 21 3 20 6 17 1 6h2l1 5h2l6 8 9 8v2l9 3 2 1v2l22 3h9l15-2 15-4 14-7h1v15l-2 16-4 11-8 11-10 7h-2l2 9-3-3v-5l-6 3-13 3-20 3-10 2-21 2h-43l-15-2-7-3 6 8 11 13 9 11 11 13 9 11 11 13 9 11 11 13 4 5v2l-4-2-14-17-11-13-9-11-11-13-9-11-11-13-9-11-5-6v-3l-9-3-11-6-6-3 1-4-2-4v-21l6-22 2-7 9-27 3-6 4-13 5-13 4-10 5-11 5-14 5-11h-2l-2 4v-3l3-6h-16l-3-3 4 1h19l2-5h2l1-6 11-17z" fill="#FB7958"/>
<path transform="translate(405,106)" d="m0 0h11l9 4 5 4h18l7 2 4 4v2l6-2h12l4 5 1 12 7 4 1 1v10l-5 5-4 3h-2l-2 6h-2l-2 4-5 5h-2v2l-3 2-4 20v11l1 15-1 3-11 6-9 17-5 6-10 7-10 3-4 1-14 1-1 3-5-2-9-4-10-2h-24l5-9 3-8v-5l-5-5-6-9-5-16v-27l3-17 4-15 5-12 6-12 7-9 7-7 4-2h8l1 1h6l5-3z" fill="#FDC6B4"/>
<path transform="translate(298,353)" d="m0 0h2l-3 9-5 12-5 14-4 8-4 11-5 13-2 6-4 13-4 10-3 9-2 7-6 22v21l2 6-7 24-1 4 12 5 12 3 3-2 2-12 1-5h1v7l-1 2-1 9-3 9-12 64-9 47v5l-7-3-16-4-12-4-15-8-5-4-4-6-2-7v-20l4-18 7-21 5-11 8-18 6-11 5-13 8-19 1-5-8 2-6 9-4 7-8 7-5 3h-4l-1-3-5 1-8 3h-8l-3-2v-9l3-12 8-7 18-14 3-2 2-6 9-11 2-5 1-7 3-8 16-24 8-11 14-18 18-22 2-3h2l2-5 5-6h2v-2l4-2z" fill="#0476AC"/>
<path transform="translate(1756,309)" d="m0 0 5 1 14 8 7 6 2 17 2 27 1 25 1 16 2 1-2 3v30l1 84 2 15v16l-7 14-6 9h-2v2l-4 1-1-1v-40l-2-26-3-21-4-17-2-4 1-3 2 6h2l-2-32-1-15-9 3-4 1 1 9 1 5-17 6-9 2h-30l-15-3-9-3-5 1-4 3 2-5 2-1 11-1 6-4 3-4 3-14v-6l-2-5-6-1-2-2 7-7 5-10 4-13 2-10 2-22 2-3 7 6 5 1 8-6 16-16 1-2h2l2-4 12-14z" fill="#79509B"/>
<path transform="translate(1256,278)" d="m0 0 5 1 9 6 6 10 5 4 12 17 8 9 7 6 6 10 2 7 2 11 6 9 9 17 4 8 4 12 2 2 10 3 6 4 1 7-5 10-10 16-7 10-13-1-5-1 4-2 3-1 1-4-7-3-4-1h-16l-6 4-4-1-16-10-18-13-17-12-9-6v-2l-5-1-1-2 14-26 13-26 8-21 4-15 1-12-2-12-4-8z" fill="#FC5E71"/>
<path transform="translate(1365,643)" d="m0 0 3 4 3 9 4 8 22 46 15 32 8 17 7 15 8 16 4 9 9 19 8 17v3l9 2h9l18-3 10-3h10v5l-5 6h-2v2l-14 11-21 14-8 4h-5l-5-5v-2h-2l-6-11-3-5v-3h-2l-8-11-9-12-13-17-10-13-8-11-10-13-8-11-10-13-13-17-8-11-14-18-11-15-8-11-6-7-7-1 4-2h9l23-5 21-6 11-4h3l-2-5z" fill="#FDC6B4"/>
<path transform="translate(1688,287)" d="m0 0h7l3 2 2 27v34l-2 22-4 18-5 11-4 6-5 5 7 3 3 5-1 12-3 9-5 6-4 2-13 1-2 5-7 11-8 20-4 15v7l-2 3v-9l-12-4-6-4-6-7-2-8 1-14 4-24-10-3-10-4-6-4-4-5-1-3v-11l5-12 16-24 2-5-2-16v-24l1-6h1v25l1 8v12l5-5 9-13 4 5 8 11 12 9 2 2-9 10-7 8-5 6 1 5 10 10 7 5v2l7-1 3-6 4-4h8l2 1 1-22v-48l-3-27-4-7-2-4h-2l1-6 5-4 17-8z" fill="#FCC5B3"/>
<path transform="translate(1171,646)" d="m0 0 15 8 14 6 21 6 16 2v1h-14l-22 36-26 42-11 17-11 18-8 12-6 11-7 11-15 24-4 6-5 16v11l3 8 11 7 4 5v5l-9 1-30-1-3-2-1-3-1-22-3-12 1-7 12-11 3-3 5-14 5-11 7-18 6-16 3-6 3-9 16-40 10-26 11-27z" fill="#FDC7B4"/>
<path transform="translate(854,89)" d="m0 0h14l9 3 7 4 3 2v2h2l5 6 8 6 12 6 5 5 4 7 2 5v7l-4 10-2 8-3 34-7 14-3-1-1-5-8 1-3 1 1-14 1-13v-13l-13-12-7-9h-7l-9 3h-9l-18-7-2 5-7 9-5 5-5 4-8 3h-7l4 39-10-2-3 3-2 4-8-15-3-13-8-15-2-4v-12l5-6h2v-2l8-6 6-8 6-11h2v-2h2v-2l8-5 6-2 14-1 7-7 8-5z" fill="#273643"/>
<path transform="translate(785,308)" d="m0 0 1 2h2v94l-8 47-3 26-1 20 1 11h2l-1 4v-3l-2 1-1 10-1 41-1 2 2 16 3 7v5l-5 4 4 14-2 4-5 2-3 4-6-1-8-6-4-6-2-5-1-13 1-17 1-9-1-2-2-19-1-25-1-10v-22l3-25 3-26 2-13 1-13 1-4 1-13 3-21 2-19 4-16 7-11 8-8 6-4z" fill="#68CEC0"/>
<path transform="translate(902,292)" d="m0 0 7 6 7 10 10 17 12 24 10 26 3 7 4 13 1 6v10l-5 13-9 10-6 5-7 2-1 6v40l-1 1-9 1-2 22-4 9-3 3h-5l-3-34-1-1-1-67-6-10-2-4v-10l3-14 2-2h4v-40h2z" fill="#FDC7B5"/>
<path transform="translate(405,106)" d="m0 0h11l9 4 6 5-3 3-5 4h-2l-2 4-7 11-4 11-5 12-2 8-11 3-8 7-6 12-2 13 1 10 3 10-19 19-6-1-8-11-5-14-1-4v-27l3-17 4-15 5-12 6-12 7-9 7-7 4-2h8l1 1h6l5-3z" fill="#263642"/>
<path transform="translate(298,353)" d="m0 0h2l-3 9-5 12-5 14-4 8-4 11-5 13-2 6-4 13-4 10-3 9-2 7-6 22-6 7-6-1-6 8h-2v2l-6 1-6 9-4 7-8 7-5 3h-4l-1-3-5 1-8 3h-8l-3-2v-9l3-12 8-7 18-14 3-2 2-6 9-11 2-5 1-7 3-8 16-24 8-11 14-18 18-22 2-3h2l2-5 5-6h2v-2l4-2z" fill="#273743"/>
<path transform="translate(831,283)" d="m0 0m-15 1h15l-1 3h-3v2l-2 1-3 44-2 16-4 28-5 25-6 17-5 10h-2l-2 4-6 5h-3v32l-1 24-2 23-4-2-1-2v-6h-2l-2-11 1-20 3-26 8-47 1-94h-2l1-9 5-6 11-6z" fill="#213743"/>
<path transform="translate(1274,384)" d="m0 0h6l37 13 21 8 10 4 6 2 5 3 1 7-5 10-10 16-7 10-13-1-5-1 4-2 3-1 1-4-7-3-4-1h-16l-6 4-4-1-16-10-18-13-6-4 2-5 16-26z" fill="#243440"/>
<path transform="translate(1784,369)" d="m0 0 2 3 2 37 2 1-2 3v30l1 84 2 15v16l-7 14-6 9h-2v2l-4 1-1-1v-40l-2-26-3-21-4-17-2-4 1-3 2 6h2l-2-32-1-15-4-1h4l-2-16-3-34v-5l11 1 9-3z" fill="#FDC8B6"/>
<path transform="translate(1231,291)" d="m0 0 1 2-7 15-9 25-6 17-6 16-7 20-4 14v14l6 10 8 7 11 7 5 5-10 18-2 2h-18l-12-6-8-8-4-9-1-9 3-18 14-42 7-27 5-22 4-9 7-8 14-10z" fill="#0778AD"/>
<path transform="translate(1665,306)" d="m0 0 4 4 4 7 3 27v48l-2 22h-10l-5 6-2 4h-7l-5-5-8-7-6-6 1-5 10-11 9-11v-2l-12-9-8-10-3-5 1-5 18-27 7-8 10-5z" fill="#79509B"/>
<path transform="translate(872,278)" d="m0 0h9l11 7 6 2 4 4v50h-2v40l-5 2-3 14v10l7 13 1 1v9l-5-3-6-8-6-14-4-13-4-19-4-27-3-26-1-19v-19z" fill="#223440"/>
<path transform="translate(794,824)" d="m0 0h1l3 31 1 3v10h24l1-9v-7l1-3 2-16 2-4-1 10-2 15-1 3 4-1 2-5 4-4 3-15 2-7h1v7l-3 9-1 6 6 2 13 7h4l-2 4-5 12v11l1 4v13l-1 1-9-1-13-6-3-1 1 7v12l-4 2h-26l-14-2-2-1v-5l12-16 2-7v-23l-1-4-1-13-1-4z" fill="#0D7AAE"/>
<path transform="translate(1688,287)" d="m0 0h7l3 2 2 27v34l-2 22-4 18-5 11-4 6-6 7h-5l1-22v-48l-3-27-4-7-2-4h-2l1-6 5-4 17-8z" fill="#FC5D71"/>
<path transform="translate(407,286)" d="m0 0h1v13l-1 4 6 13 4 10 9 29 7 29 2 9v5l8-3 3 1-6 3-8 2-9 4-2 1-14 1-4-5-4-14-1-11-1-24-1-59 5 2 4 3 1-1z" fill="#F87A5E"/>
<path transform="translate(465,120)" d="m0 0h12l4 5 1 12 7 4 1 1v10l-5 5-4 3h-2l-2 6h-2l-2 4-5 5h-2v2l-4-1-2-21-7 2h-9l-4 11-6 9-9 7-9 3v-8l3-10 3-6 3-7 3-8h2l1-4 4-7h2l1-4 7-6 8-4h7z" fill="#273643"/>
<path transform="translate(902,292)" d="m0 0 7 6 7 10 10 17 12 24 10 26 3 7 4 13 1 6v10l-5 13-4 5h-4v-10l-4-12-2-11-4-9-4-2-1-2-1-41-25-1z" fill="#6CD0C1"/>
<path transform="translate(596,306)" d="m0 0h5l3 5-1 4-10 7-4 4-2 20-4 10-5 5-11 7-15 7h-2v6h-1l-1-7-9-14-2-2-7 1v-2l4-2 8-10 5-5 12-10 11-4 9-7h2v-2l11-8z" fill="#FDC7B6"/>
<path transform="translate(900,423)" d="m0 0 14 12 13 5v46l-1 1-9 1-1 23-4 9-3 3h-5l-3-34-1-1z" fill="#FB7859"/>
<path transform="translate(1621,442)" d="m0 0 8 1 25 5 10 1-1 4-8 13-8 20-4 15v7l-2 3v-9l-12-4-6-4-6-7-2-8 1-14 2-11 2-4z" fill="#FD6374"/>
<path transform="translate(1093,840)" d="m0 0 7 1 12 6-3 12-1 3v11l3 8 11 7 4 5v5l-9 1-30-1-3-2-1-3-1-22-3-12 1-7 12-11z" fill="#087AAD"/>
<path transform="translate(362,627)" d="m0 0 3 4 9 11 11 13 6 7 2 1-1 2-10 10-9 4-9 2-22 1-8 1 2-5 18-36 6-13z" fill="#0477AC"/>
<path transform="translate(1295,320)" d="m0 0 8 6 7 8 4 7 2 7 2 11 6 9 9 17 4 8 4 13-6-1-24-9-19-7 3-16 8-22 1-5v-10l-4-8-5-6z" fill="#FDC7B4"/>
<path transform="translate(1502,834)" d="m0 0h10v5l-5 6h-2v2l-14 11-21 14-8 4h-5l-5-5v-2h-2l-6-11-2-4v-3l14-11h18l18-3z" fill="#087AAD"/>
<path transform="translate(396,168)" d="m0 0 7 2 6 7 2 5v15l-3 10-6 9-5 4-4 2h-10l-5-5-4-9h-1l1-14 4-11 6-8 6-5z" fill="#FB7858"/>
<path transform="translate(900,341)" d="m0 0 26 1 1 1v42l-1 4 2 5v9l-3 2h-8l-6-5-10-15-1-2-4-2h4z" fill="#FD7857"/>
<path transform="translate(208,480)" d="m0 0h1l2 6 11 12 4 3 7 1v1l-6 1-6 9-4 7-8 7-5 3h-4l-1-3-5 1-8 3h-8l-3-2v-9l3-12 8-7 18-14 3-2z" fill="#FDC8B7"/>
<path transform="translate(1666,845)" d="m0 0h23v26l-4 8-7 8-9 4-3 1-18 1-7-1-3-4 4-6 10-10 6-5 5-9z" fill="#805AA0"/>
<path transform="translate(773,554)" d="m0 0h1v7l-1 2 2 16 3 7v5l-5 4 4 14-2 4-5 2-3 4-6-1-8-6-4-6-2-5-1-13 1-17 1-9 1-2 7 2h10l6-2z" fill="#FDCAB8"/>
<path transform="translate(438,114)" d="m0 0h10l7 2 4 4v2l3 1-7 1-7 2-9 7-2 4-3 3-4 8h-2l-2 8-3 7-3 6-4 15-2-4-4-6v-2l-5-2-4-2 1-8 7-18 6-12 6-8 10-7z" fill="#F9795D"/>
<path transform="translate(1657,371)" d="m0 0 2 2 3 12 6 11 4 6 1 3v8l-9 1-5 6-2 4h-7l-5-5-8-7-6-6 1-5 10-11 9-11z" fill="#23333F"/>
<path transform="translate(1756,380)" d="m0 0h2l4 44v6h-4v2l-5 2h-6l-2-12v-20l8-14z" fill="#263542"/>
<path transform="translate(596,306)" d="m0 0h5l3 5-1 4-10 7-2 2h-7l-8 7-12 12h-3l2-5 3-10 9-6 4-3h2v-2l11-8z" fill="#42495C"/>
<path transform="translate(902,489)" d="m0 0h13v25l-3 6-3 3h-5l-2-20z" fill="#263642"/>
<path transform="translate(275,526)" d="m0 0 5 1 7 9 11 13 9 11 11 13 9 11 11 13 9 11 11 13 4 5v2l-4-2-14-17-11-13-9-11-11-13-9-11-11-13-9-11-5-6v-3z" fill="#FBFBFB"/>
<path transform="translate(859,553)" d="m0 0h1v11l-7 69 1 1v5h-2l-2 13h-1v-11l1-3 3-34 5-48z" fill="#FDFDFD"/>
<path transform="translate(1630,403)" d="m0 0 4 5 9 9 7 5-2 2-11-4-11-7-2-3 4-5h2z" fill="#EC5D74"/>
<path transform="translate(1765,460)" d="m0 0h1l2 30 2 16v10h-1l-4-25-3-12-2-4 1-3 2 6h2z" fill="#F7FBFA"/>
<path transform="translate(901,489)" d="m0 0h1l2 26v8l4 1-3 2-2 3-2-23z" fill="#7880B2"/>
<path transform="translate(280,345)" d="m0 0 4 1h19l-1 5-2 3-2-1-2 4v-3l3-6h-16z" fill="#A487B4"/>
<path transform="translate(1230,392)" d="m0 0h2l-1 12-5-1-1-2z" fill="#3168A5"/>
<path transform="translate(385,265)" d="m0 0 15 2-4 2-1 3-5-2-6-3z" fill="#FDFDFD"/>
<path transform="translate(864,575)" d="m0 0 1 4-4 16h-2l1-7 3-12z" fill="#FDFDFD"/>
<path transform="translate(851,632)" d="m0 0 3 2v5h-2l-2 13h-1v-11z" fill="#B199C4"/>
<path transform="translate(323,313)" d="m0 0h1l-1 19h-1l-1-13-2-1z" fill="#CE6286"/>
</svg>