<svg width="427" height="356" viewBox="0 0 427 356" fill="none" xmlns="http://www.w3.org/2000/svg">
<path d="M93 189C93 210.931 97.3196 232.647 105.712 252.908C114.105 273.17 126.406 291.579 141.913 307.087C157.421 322.594 175.831 334.895 196.092 343.288C216.353 351.68 238.069 356 260 356L260 240.255C253.269 240.255 246.604 238.93 240.385 236.354C234.167 233.778 228.516 230.003 223.757 225.243C218.997 220.484 215.222 214.833 212.646 208.615C210.07 202.396 208.745 195.731 208.745 189H93Z" fill="#1E5DBC"/>
<path d="M93 309.552C108.986 309.552 124.317 303.201 135.621 291.897C146.925 280.593 153.276 265.262 153.276 249.276C153.276 233.29 146.925 217.958 135.621 206.654C124.318 195.35 108.986 189 93 189L93 249.276V309.552Z" fill="#FFB201"/>
<path d="M185 22C163.069 22 141.353 26.3196 121.092 34.7121C100.83 43.1047 82.4205 55.4058 66.9132 70.9132C51.4058 86.4206 39.1046 104.831 30.7121 125.092C22.3196 145.353 18 167.069 18 189L92.611 189C92.611 176.867 95.0007 164.853 99.6437 153.644C104.287 142.435 111.092 132.25 119.671 123.671C128.25 115.092 138.435 108.287 149.644 103.644C160.853 99.0007 172.867 96.611 185 96.611V22Z" fill="#A27FFF"/>
<path d="M0 120.552C15.9861 120.552 31.3175 114.201 42.6214 102.897C53.9253 91.5933 60.2757 76.2619 60.2758 60.2758C60.2758 44.2896 53.9253 28.9583 42.6214 17.6544C31.3175 6.35047 15.9861 3.11261e-06 1.40786e-05 0L0 60.2758L0 120.552Z" fill="#1EBCB4"/>
</svg>
