<svg width="303" height="373" viewBox="0 0 303 373" fill="none" xmlns="http://www.w3.org/2000/svg">
<path d="M159.297 157.147C159.827 156.989 160.369 156.873 160.918 156.8L182.816 112.303L176.131 102.281L189.938 90.2137L207.295 111.454L171.945 162.902C172.814 164.848 173.071 167.012 172.681 169.107C172.29 171.203 171.271 173.129 169.759 174.631C168.247 176.133 166.314 177.139 164.216 177.516C162.118 177.892 159.955 177.621 158.015 176.738C156.076 175.855 154.45 174.403 153.356 172.574C152.262 170.745 151.75 168.627 151.889 166.5C152.028 164.373 152.811 162.339 154.135 160.668C155.458 158.998 157.258 157.769 159.297 157.147Z" fill="#A0616A"/>
<path d="M196.679 96.3613C196.381 96.6757 196.039 96.9455 195.663 97.1623L173.258 110.151C172.719 110.463 172.122 110.66 171.503 110.73C170.884 110.799 170.258 110.74 169.664 110.555C169.069 110.37 168.52 110.064 168.05 109.655C167.58 109.247 167.2 108.746 166.934 108.183L156.036 85.1606C155.573 84.1917 155.473 83.0885 155.755 82.0521C156.037 81.0158 156.683 80.1155 157.573 79.5155L171.463 70.0672C172.33 69.4777 173.376 69.2095 174.42 69.3088C175.464 69.4081 176.44 69.8687 177.181 70.6111L196.594 90.0925C197.42 90.9216 197.89 92.0395 197.906 93.2096C197.922 94.3796 197.482 95.51 196.679 96.3613Z" fill="#CCCCCC"/>
<path d="M228.139 351.332L216.309 354.551L198.264 310.454L215.724 305.703L228.139 351.332Z" fill="#A0616A"/>
<path d="M206.94 353.47L229.754 347.263L233.663 361.628L196.484 371.743C195.97 369.857 195.834 367.888 196.081 365.949C196.329 364.009 196.956 362.138 197.927 360.441C198.898 358.744 200.194 357.255 201.74 356.059C203.287 354.863 205.053 353.984 206.94 353.47Z" fill="#2F2E41"/>
<path d="M127.008 360.359L114.75 360.358L108.917 313.07L127.01 313.071L127.008 360.359Z" fill="#A0616A"/>
<path d="M105.992 356.856H129.636V371.742H91.105C91.105 369.787 91.49 367.852 92.2382 366.045C92.9863 364.239 94.0828 362.598 95.4652 361.216C96.8476 359.834 98.4887 358.737 100.295 357.989C102.101 357.241 104.037 356.856 105.992 356.856Z" fill="#2F2E41"/>
<path d="M139.925 54.3696C153.49 54.3696 164.486 43.3733 164.486 29.8086C164.486 16.2439 153.49 5.24756 139.925 5.24756C126.361 5.24756 115.364 16.2439 115.364 29.8086C115.364 43.3733 126.361 54.3696 139.925 54.3696Z" fill="#A0616A"/>
<path d="M126.258 326.643H109.504C108.359 326.641 107.257 326.204 106.423 325.42C105.588 324.636 105.082 323.563 105.009 322.421C100.016 243.059 102.937 186.131 114.198 143.267C114.248 143.08 114.309 142.895 114.381 142.715L115.278 140.472C115.609 139.635 116.186 138.918 116.931 138.413C117.676 137.909 118.556 137.64 119.456 137.643H153.908C154.558 137.643 155.199 137.783 155.789 138.054C156.379 138.325 156.903 138.721 157.325 139.215L162.005 144.674C162.096 144.781 162.181 144.889 162.263 145.004C183.365 174.429 202.275 231.958 224.176 309.282C224.499 310.406 224.371 311.611 223.818 312.642C223.266 313.672 222.332 314.446 221.217 314.799L203.213 320.56C202.179 320.886 201.063 320.829 200.067 320.401C199.071 319.973 198.263 319.202 197.788 318.228L151.065 221.321C150.738 220.644 150.202 220.09 149.536 219.741C148.87 219.392 148.109 219.267 147.366 219.384C146.623 219.502 145.938 219.855 145.412 220.392C144.886 220.93 144.547 221.622 144.445 222.367L130.716 322.753C130.566 323.829 130.032 324.815 129.213 325.53C128.394 326.244 127.345 326.64 126.258 326.643Z" fill="#2F2E41"/>
<path d="M160.116 145.074C160.069 145.074 160.022 145.073 159.975 145.072L118.126 143.751C117.05 143.72 116.021 143.305 115.226 142.579C114.432 141.853 113.925 140.865 113.798 139.796C108.493 96.8551 123.042 85.3512 129.543 82.399C130.086 82.1538 130.557 81.7725 130.91 81.2919C131.262 80.8112 131.485 80.2477 131.555 79.6558L132.118 75.1548C132.214 74.36 132.521 73.6054 133.007 72.9693C143.201 59.7642 157.12 55.5357 164.51 54.191C165.109 54.0833 165.724 54.0985 166.317 54.2358C166.911 54.373 167.47 54.6295 167.961 54.9895C168.452 55.3496 168.865 55.8057 169.174 56.3302C169.484 56.8547 169.683 57.4366 169.761 58.0406L170.604 64.5035C170.69 65.1199 170.935 65.7031 171.317 66.1949C192.576 93.9869 168.892 135.022 163.929 142.965C163.523 143.61 162.961 144.142 162.294 144.511C161.627 144.88 160.878 145.073 160.116 145.074Z" fill="#CCCCCC"/>
<path d="M189.479 32.5736C184 24.8586 177.429 17.9801 169.973 12.1532C163.775 7.31174 156.876 3.17545 149.264 1.19687C141.652 -0.781709 133.245 -0.444915 126.301 3.24606C119.355 6.93706 112.175 14.2706 112.131 22.1355C112.117 24.6621 112.76 28.0804 115.248 27.6433L115.968 27.7387C121.97 26.5264 127.973 25.314 133.975 24.1017C136.531 32.9736 139.088 41.8455 141.644 50.7174C142.183 52.5872 142.906 54.6782 144.681 55.4756C146.353 56.2266 148.285 55.5191 149.977 54.813C150.255 54.6967 152.645 49.3313 152.645 49.3313C152.705 49.1637 152.809 49.015 152.945 48.9008C153.082 48.7865 153.246 48.7107 153.422 48.6813C153.597 48.6519 153.778 48.6699 153.944 48.7335C154.11 48.7971 154.257 48.9039 154.368 49.0429L155.788 50.8175C156.059 51.1566 156.433 51.3982 156.854 51.5057C157.275 51.6133 157.719 51.581 158.12 51.4137C167.908 47.3275 177.697 43.2413 187.486 39.1551C188.838 38.5904 190.35 37.8529 190.742 36.4403C191.118 35.0871 190.291 33.7188 189.479 32.5736Z" fill="#2F2E41"/>
<path d="M302 372.643H1C0.734784 372.643 0.480444 372.538 0.292908 372.35C0.105371 372.163 0 371.908 0 371.643C0 371.378 0.105371 371.124 0.292908 370.936C0.480444 370.749 0.734784 370.643 1 370.643H302C302.265 370.643 302.52 370.749 302.707 370.936C302.895 371.124 303 371.378 303 371.643C303 371.908 302.895 372.163 302.707 372.35C302.52 372.538 302.265 372.643 302 372.643Z" fill="#3F3D56"/>
<path d="M138.817 216.807C138.137 216.805 137.475 216.585 136.928 216.182L132.376 212.875C131.998 212.599 131.543 212.45 131.075 212.45C130.607 212.45 130.152 212.599 129.774 212.875L125.222 216.182C124.673 216.581 124.012 216.795 123.334 216.795C122.655 216.795 121.994 216.581 121.445 216.182C120.896 215.783 120.487 215.221 120.277 214.575C120.068 213.93 120.068 213.235 120.277 212.589L122.016 207.238C122.161 206.794 122.162 206.315 122.017 205.87C121.873 205.425 121.591 205.038 121.212 204.764L116.66 201.456C116.111 201.057 115.702 200.495 115.492 199.849C115.283 199.204 115.283 198.509 115.493 197.864C115.702 197.218 116.111 196.656 116.66 196.257C117.209 195.858 117.87 195.643 118.549 195.643H124.175C124.643 195.644 125.098 195.496 125.477 195.222C125.855 194.947 126.137 194.559 126.28 194.114L128.019 188.763C128.228 188.117 128.637 187.555 129.186 187.156C129.735 186.757 130.396 186.542 131.075 186.542C131.754 186.542 132.415 186.757 132.964 187.156C133.513 187.555 133.921 188.117 134.131 188.763L135.87 194.114C136.014 194.559 136.295 194.947 136.673 195.222C137.051 195.496 137.507 195.644 137.975 195.643H143.601C144.28 195.643 144.941 195.858 145.49 196.257C146.039 196.656 146.448 197.218 146.657 197.864C146.867 198.509 146.867 199.204 146.657 199.849C146.448 200.495 146.039 201.057 145.49 201.456L140.938 204.763C140.559 205.038 140.277 205.425 140.133 205.87C139.988 206.315 139.989 206.794 140.134 207.238L141.873 212.589C142.09 213.234 142.094 213.932 141.884 214.579C141.674 215.226 141.26 215.788 140.706 216.182C140.158 216.585 139.497 216.804 138.817 216.807Z" fill="#FF3F02"/>
<path d="M156.213 206.109C157.498 205.207 158.571 204.035 159.354 202.674C160.138 201.313 160.613 199.796 160.747 198.231C160.882 196.667 160.671 195.091 160.13 193.617C159.59 192.142 158.733 190.804 157.619 189.697L165.392 95.8254L142.248 99.0093L141.808 190.214C140.072 192.208 139.127 194.77 139.153 197.414C139.179 200.058 140.174 202.6 141.95 204.56C143.726 206.519 146.158 207.759 148.787 208.045C151.416 208.33 154.058 207.642 156.213 206.109Z" fill="#A0616A"/>
<path d="M166.905 109.342C166.471 109.342 166.04 109.28 165.624 109.157L140.778 101.849C140.181 101.674 139.627 101.376 139.15 100.975C138.674 100.574 138.286 100.079 138.011 99.5208C137.736 98.9623 137.58 98.3529 137.552 97.731C137.525 97.1091 137.627 96.4883 137.851 95.9078L147.046 72.1539C147.43 71.1506 148.161 70.3187 149.107 69.8099C150.053 69.3011 151.15 69.1494 152.199 69.3824L168.614 72.9507C169.638 73.1739 170.553 73.7477 171.2 74.5732C171.846 75.3987 172.184 76.424 172.156 77.4722L171.392 104.964C171.359 106.134 170.873 107.245 170.035 108.062C169.198 108.879 168.075 109.339 166.905 109.342Z" fill="#CCCCCC"/>
</svg>
