<?xml version="1.0" encoding="UTF-8"?>
<svg version="1.1" viewBox="0 0 946 1039" width="1280" height="1280" xmlns="http://www.w3.org/2000/svg">
<path transform="translate(462,121)" d="m0 0h22l28 2 26 4 26 6 36 12 20 9 20 10 23 14 19 14 11 9 20 18 11 11 7 8 14 17 13 19 10 16 14 27 10 24 8 24 6 25 4 24 2 21v43l-3 28-5 26-6 22-7 21-11 25-12 23-12 19-10 14-13 16-11 12-9 10-13 12-14 12-19 14-19 12-22 12-24 11-25 9-30 8-29 5-20 2h-50l-27-3-26-5-26-7-25-9-26-12-22-12-21-14-17-13-14-12-17-16-9-10-12-14-12-16-11-17-12-21-12-25-9-24-7-25-5-24-3-22-1-12v-43l2-21 4-24 6-25 9-27 10-23 10-20 12-20 10-14 10-13 11-13 12-13 10-10 8-7 13-11 18-13 17-11 18-10 27-13 25-9 24-7 29-6 26-3zm-21 32-3 16-1 6-56 11-9 1-7-7-7-6-5 1-39 20-19 10-9 5 1 29-14 14-8 7-15 15h-30l-32 64v3l12 8-1 9-13 57-22 5-1 41v20l4 2 19 3h4l1 10 11 53v6l-8 7-8 8 2 6 21 43 1 1 35 1 11 12 7 8 12 14 3 3 4 41 25 14 22 13 5-2 12-8 3-1 54 15 16 27 11 1 75 1 5-12 5-14 28-6 26-5h6l20 12 6-1 33-17 18-10v-28l13-12 12-11 10-9 7-6h27l30-52 7-12-2-4-9-12 1-10 11-49v-2l6-2 16-8 1-22 1-55-9-4-18-6h-2l-4-19-9-39 13-22-7-11-28-42h-28l-28-28-8-7-2-2-1-8-1-20-34-18-13-7-4 2-10 10-17-4-42-11h-2l-1-7-5-16-34-1z" fill="#3A3285"/>
<path transform="translate(462)" d="m0 0h22l34 2 37 5 28 6 26 7 27 9 29 12 23 11 18 10 21 13 16 11 16 12 16 13 12 11 8 7 20 20 7 8 12 14 15 20 12 17 15 25 13 24 11 24 11 29 8 26 8 34 5 32 2 21 1 19v29l-2 31-5 35-6 28-7 25-8 24-12 29-16 32-15 25-13 19-9 12-11 14-13 15-16 17-10 10-8 7-10 9-14 11-17 13-18 12-25 15-27 14-9 4 16-1 247-28h7l4 7-2 5-8 8-7 8-12 13-7 8-12 13-7 8-4 5 5 5 15 12 28 22 15 12 3 2v2l-81 21-74 19h-2v26h-626v-21l-9-1-150-35-2-2 13-12 11-9 15-14 8-7 10-9 11-9v-3l-13-15-12-14-9-11-13-15-10-12 2-6 2-3 18 1 234 25h3l-20-10-27-16-15-10-14-10-14-11-13-11-10-9-12-11-11-11-7-8-10-11-11-14-10-13-18-27-14-24-15-30-11-27-10-30-9-36-5-30-3-28-1-19v-29l2-31 4-30 6-29 8-30 11-31 10-23 10-21 13-23 14-22 14-19 11-14 13-15 12-13 18-18 8-7 14-12 17-13 17-12 22-14 18-10 19-10 30-13 25-9 28-8 26-6 30-5 30-3zm-5 16-30 2-35 5-28 6-25 7-24 8-24 10-25 12-17 9-21 13-16 11-16 12-11 9-14 12-7 7-8 7-8 8-7 8-10 11-9 11-15 20-12 18-12 20-12 23-10 21-11 29-9 30-6 26-5 31-2 19-1 17v37l2 28 5 34 7 31 9 30 13 33 14 29 10 18 12 19 12 17 12 16 13 15 11 12 25 25 11 9 9 8 16 12 20 14 22 13 24 13 24 11 29 11 30 9 26 6 29 5 30 3 36 1 26-1 30-3 29-5 30-7 29-9 28-11 26-12 24-13 24-15 18-13 14-11 14-12 12-11 25-25 9-11 11-13 14-19 13-20 11-19 12-23 9-20 11-29 9-31 6-27 5-34 2-28v-37l-2-28-4-28-6-29-8-29-10-28-11-25-13-26-12-20-12-18-14-19-11-13-9-11-8-8-7-8-8-8-8-7-12-11-14-11-13-10-16-11-19-12-22-12-29-14-26-10-24-8-36-9-37-6-20-2-19-1zm-428 836 2 4 9 11 13 15 11 13 12 14 8 10-5 6-8 7-10 9-8 7-14 12-13 12-3 2v2l115 27 22 5h2l1-107 21-2 95-17 3-1v-2l-252-27zm884 3-230 26-5 1v2l31 5 75 11 3 1 1 101 11-2 121-31 2-1-1-3-13-10-14-11-15-12-14-11v-3l7-8 12-13 7-8 12-13 7-8 11-12v-1zm-253 18m-345 12-78 14v1h81v-14zm309 2-30 9-12 3v1h44v-13zm13 1-1 5 1 7h76v-1l-74-11zm-309 2v10h36l-4-2-29-8zm-155 20-1 10v108l1 1h604v-119z" fill="#3B3386"/>
<path transform="translate(479,210)" d="m0 0h8l8 16 15 31-5 28-4 22 37-12 41-14 13-4 13 11 10 8 13 11 4 3-7 68-3 28 5-2 22-11 19-10 3-1 48 4 4 1 2 7-8 8-8 7-17 16-6 5-60 7h-2l11 14 11 13 11 14 11 13 11 14 2 4h2l-1 7-16 50-1 2-23 2-71 5v2l13 13 8 7 17 17 12 47v5l-3 3-6-1-32-17-11-6-19-40-4-9v-2h-2l-2 5-13 20-16 25-11 17-7 11-15 1-46 1-43-86-3 4-18 38-4 8-20 13-19 12-5 3-5-2-2-1 2-14 7-39 15-15 8-7 12-12 8-7-4-2-91-24-2-7-9-54 2-4 8-8 8-7 26-26 8-7 11-11-1-1-53-8-11-9-12-11-11-9-6-5 1-8 21-3 25-3h9l49 28v-95l11-8 39-26 6 2 72 39 5 3-8-42v-6zm4 11-15 37 1 12 14 76 2 2 5-24 12-64-2-6-14-29zm-93 51m1 1 1 7 16 49 11 35 1 4h-5l-16-15-8-7-13-12-8-7-13-12-8-7-5-4h-1v49l1 43 24 14 16 9-1 7-40-6h-9l-18 18-8 7-26 26-8 7v2l36 1 63 1 1 5-6 2-34 18-25 13-22 12-7 4 3 2 91 24 8-6 17-17 8-7 3-1 4 4-18 38-1 6 41 82h2l18-71 8-31v-4l5 1 15 69 7 32 2 3 7-10 14-22 13-20 14-22-1-5-19-40v-3l3-2 4 1 9 9 8 7 14 14h16l72-5 7-1-5-4-23-16-24-16-34-23v-5l50 6 44 5h9l-6-8-9-11-13-16-9-11-13-16-6-8-16 1-26 3-3 1-1-6-1-2 6-2 31-16 8-5 2-13 8-74v-6l-4 2-15 13-13 11-11 9-14 12-13 11-7 6-4-1 1-5 20-40 11-23 12-24-1-3-86 29-2 6-9 48v2h-8l-1-11-8-44-4-4-32-17-22-12-20-11zm-116 97-33 4 2 4 11 9 12 11 5 4 16 3 66 10h7l-3-3-25-14-24-14-25-14zm396 20-37 19-19 10-23 12 1 2 89-10 8-7 15-14 8-7-2-2zm-310 25m34 138-7 7-8 7-12 12-8 7-12 12-8 7-9 9-7 39 1 2 24-15 11-7 17-35 13-28 7-15v-2zm142 4 2 6 17 36 14 30 5 10 18 10 16 9 3-1-10-40-10-9-14-14-8-7-16-16-8-7-7-7z" fill="#050505"/>
<path transform="translate(508,42)" d="m0 0h10l6 4 5 10 2 7 5 2 2 5h-8l-1 15-3 21-8-5 1-16 2-17-13-1-20-1v7l3-1h7l6 3 4 6 1 8-4 8-2 3-4-2-3-2 2-4 3-5v-6l-1-1-9 1-2 1-1 20-5-2-4-2v-4l-6 3-9-1-6-4-3-5v-9l4-6 4-2 10 1 6 3v-8h-34l-2 1 4 32v3l-5-1-5-3-3-23v-8l-9 1 1 2 2 17v7l-3 2-8-1-8-6-2-5 1-2 9-2-1-10-9 1-8 1 5 33v3l-6-1-4-2-4-28v-4l-12 5 8 35-9-2-2-2-6-26v-4l-12 4 11 32v2l-10-1v-2h-2l-2 5-6 5-2 1h-7l-5-3-1-2v-6l1-2-6-2-3-3-1-6 1-3 7-3v-3l-11 3h-3v2l-7 2 14 32v2h-9l-3-5-10-23v-2l-10 6 2 5 14 26v2l-10-1-1-3h-2l-2 10-2 2-4-3 3-11-4 2h-12l-4-2-6-11-5 1-6-2 3-3 24-13 12-6v-2l4-2-5-2-8 1-4 1-5-2 3-3 6-2h7l8 4 3 2-4-5-6-4-3-1h-9l-5 1-5-2 4-4 6-2 10 1 9 6 6 7 5-1 5-3 40-14 12-3v-2l-8-7-2-1h-9l-5-3v-2l6-2h7l7 4 10 11 6-1 3-2h7l-2-6v-8l5-5 6-2h14l14 5 11 6v1h-7l-11-4-6-1h-12l-4 2-1 4 1 5 40-5h76l1 1 9 1-1-6-3-5-7-1h-2l-1 8-2 1-5-2v-9l4-5zm-127 29m1 1m1 1m-24 3m110 0-5 3-2 2v7l4 3 6-1 7-6v-5l-3-2zm-122 9-6 2 1 7 1 4-13 5 1 3 13-1 3 4-4 1-5 5v3h8l5-4 3-6-1-9-5-14zm-52 18m-13 11-9 5 2 6 5 9 7-1 2-3 1-6-6-10zm10 19 1 2z"/>
<path transform="translate(575,930)" d="m0 0h12l6 4 9 15 138 1 3 5-7 1-1 35-5-2-3-2v-18l-19 1-1 6 4 6 7 7-1 3-7-4-8-8-3-6v-9l5-3h23v-7h-34v36l-6-2-2-2v-32h-6v36l-6-2-2-2-1-8-8 4h-8l-6-4-5-10v-1l9-3 2-4-1-5-14-1v12l-17 1-4 4 2 6 5 1 1-5 3-2h8l4 4-1 5-5 4 5 6v2l-3 1-7-8-11-2-6-4-3-5v-8l5-5 4-1h11v-6h-23v36l-6-2-2-2-1-31-5-1v36l-6-2-2-2-1-5-6 4-3 1h-10l-6-4-3-4v-7l1-2-5-1-4-7h23l5 7-9 2-4 3v5l1 1h8l9-4 3-3v-17l-39-1v37l-9-5v-11l-2 1-2 6-9 9-3-3 2-4 7-6-10-5-4-5v-14h-5l-3-3v-2h90l-6-10-3-3-9-2zm-51 25-1 1v15l5 3 5-2 3-4v-13zm136 0 1 9-2 4-8 3 2 4 1 1h9l7-4 1-1v-15l-1-1z" fill="#080808"/>
<path transform="translate(458,383)" d="m0 0 13 1 8 4 4 4 8-7 11-2 15 1 11 3 3 5v2h8l3 1v42h2l1-5 4-12h6l2 1-3 12-7 14-4-1-1 26-21-1 2 4-12 7 10 4 19 7v28h-7l-1-12v-11l-9-2-25-9h-32l-30 9h-3v24h-7v-30l23-7 2-1-10-6v-4h-18l-1-20-4 1-9-19-3-9v-4l7-1 4 10 5 12 1-47h11l2-6 3-3zm-6 3-10 2-1 1v59l24-1 12 3 5 2v-50l-2-9-7-6-4-1zm45 0-8 3-4 5-1 4v55l9-5 5-1h14l13 1v-59l-6-2-7-1zm-60 7-5 9v56l3-1 4-9v-55zm90 1v56l5 8h1v-57l-4-7zm6 2 1 4v64l-32-2h-12l-8 2-6-2h-12l-32 2-2 1 1-65 1-3h-6v72h14l27-2h7l5 2h8l5-2 21 1 13 1h14v-72zm-82 53-11 2-5 9v2l41-2 3 2 3-1-3-7-3-3-6-2zm45 0-8 3-4 6v4l5-1 1-1 41 2-2-6-3-5-11-2z" fill="#4D4691"/>
<path transform="translate(241,735)" d="m0 0 11 7 17 12 13 8 3 3-13 23v5l3 3h7l6-9 8-14 3-1 16 8 27 12 17 5 19 7-2 8-7-1-15-5-1 6 10 3 8 3-1 6-1 2-9-2-10-3-3 7 9 2 12 5-3 9-33-11 1-6 8-24-6-2-7-3-2 6-10 22-9-3-3-3 11-25v-3l-11-5-10 16-5 4-5 2-8-1-8-4-7-6-2-4v-10l9-18-7-4-5-2-16 23-2 1-10-7 7-11 10-14-5-5-4-3 2-5zm31 24m-1 1 1 2zm-1 2v3zm36 19 1 2zm-1 2 1 2zm38 13 1 2zm-1 2 1 3z"/>
<path transform="translate(284,930)" d="m0 0h12l6 4 6 9 3 6 10 1 3 5h-7v36l-4-1-5-3v-32h-5v36l-5-1-4-3v-8l-9 4h-7l-5-3-4-5-2-4v-3l8-3 2-3v-5l-1-1-12-1v37l-9-5-1-8-5 4-7 3-11-1-6-5-1-5 5-5 2-1-8-6-2-4v-4l-3 1-1 35-5-2-3-2v-32h-6l-4-5h10l-1-4v-9l5-5 4-1h10l10 3 11 6 8 6v1h-6l-14-7-9-2-9 1-1 1 1 9 5 1 5-4h10l5 3 2 3-1 5-5 4h-8l4 3 7 2 3 3-10 5-1 3 1 2h7l8-5 4-4 1-15-4-2-2-3h57l-6-12-5-2-7-1zm-52 20-3 3 1 4h6l2-1-1-5zm51 5 1 3v7l-3 4-7 2 2 4 2 1h8l6-3 2-2v-16z" fill="#0D0D0D"/>
<path transform="translate(773,191)" d="m0 0 3 1 10 13 11 14 5 7 4-7 1-9-3-6 2-6 5 5 2 5-1 10-6 13 6 9 15 26 11 21 11 23-1 7-2 2-4-8-9 4h-2l-9-18v-2l-2 1-1 4 5 10v9l-5 5-9 1-6-4-3-7v-9l4-13 2-3 3 1-1 5-3 9 1 9 2 4 9 2-1-6-4-8v-7l4-9 3-2 5 1 3 4 5 11 4-2-13-27v-2l-26 15-5 3h-2v-10l8-5-4-5-1-3v-10l2-5 10-6v-3l-4-6-4 1-18 13-9 6-1-4v-7l18-13 6-4-1-4-7-9-6 7-3 2h-10l-2-1-2 20h-4l-1-5v-21l4-8 4-2 4 4 1 2h7l2-2-1-5-7-9zm34 44 1 2zm3 19-11 7-1 4 5 5h7l8-5-1-5-4-6z"/>
<path transform="translate(225,144)" d="m0 0h8l-2 4-2 1 2 5 13 14 7 9-1 2-9 1-5-5-4 9-5 4h-11l-7-3 2-5 1-2v-7l-2-2-5 1-8 7 6 8 9 10 7 8-1 3-9 1-12-14-7-8-4 1-1 4-3 4 7 7 8 7 11 10-2 2-8 2-7-7-5-4-3 1-7 8-2 3 1 5 4 2h17v3l-6 2h-17l-8-5-1-6 4-6 11-12-3-4-3 1-7 8-11 12-2 2h-7l3-5 15-16 7-8 2-4v-3l12-11 1-2-5-1-8-1-4 4 2 6 2 3-4 3-5-2-4-6v-6l3-5 7-4h9l11 5 5-2 10-9 11-9zm-5 12-7 6v2l5 2 2 4-1 7-2 5h6l5-4 3-7-1-5-9-10z"/>
<path transform="translate(174,674)" d="m0 0 9 1 6 5 5 7 2 9v3l3-3 4 2 20 20 4 5-2 4-5 4-8-8-4 2-11 11-8 7-7-6-2-4 14-14 7-6-6-8-5-1-6-7v-9l-3-3-3 1 5 15v10l-5 5-4 2h-7l-8-5-6-8-2-4v-10l4-6 3 1 6 7-2 5 1 6 2 2 5-1-1-8-3-8v-8l5-6z"/>
<path transform="translate(679,115)" d="m0 0 5 2 13 8v2l5 2 9 6 5 2 10 9 11 9 14 12v7l-4-2h-4l-12 14-9 11h-2l-3-9 9-11-2-4-6-4-4 3h-6l-3-7v-7l2-4h6l15 13 5 2 3-4-2-4-14-12-5-4-6-3-3-2-2 5-14 20-3 5h-2l-3-6 1-6 15-22 1-2-8-4-14 22-5 8-3-3-2-4 1-5 14-22-2-4z"/>
<path transform="translate(567,68)" d="m0 0 9 2 40 14 27 12 3 1 2 5-1 3-11-5-1 6-3 4 2 4 8 1h2l-2 6-4 1-8-4-2-2-4 1 1 9 3 8-4 1-7-14-3-9v-8l1-1 7 1 4 1 3-3 1-5-9-3-9-4-12 34-5-5-2-4 4-12h-7l-8-5-3 1 4 13 1 5-3 1-8-14-4-10v-6l2-2 6 1 3 1 4-4v-4l-14-5zm24 14-3 9-2 3 6 4 8-1 3-8v-3z"/>
<path transform="translate(444,468)" d="m0 0 16 8 4 1h34l12-4 6-3 5 1 2 4-12 7 10 4 19 7v28h-7l-1-12v-11l-9-2-25-9h-32l-30 9h-3v24h-7v-30l23-7 2-1-10-6v-4z" fill="#050505"/>
<path transform="translate(152,226)" d="m0 0 1 2-7 11 8 2 5 5 1 9 21-3-1 4-14 6-9 2-9-1-3-3 2-5 2-2-1-5-3-3-4 1-8 12-1 3 5 2 25 15v2l-7 4-5-2-24-14-1 5-2 4 24 13 7 4v2l-7 4-4-1-24-13-2 1-5 12-7 2 3-10 8-16 3-7 11-18 15-22z"/>
<path transform="translate(368,934)" d="m0 0h11l6 4 6 9 3 5v2h10l3 3v2h-7v37l-8-4-1-1v-32h-5v37l-8-4-1-1-1-8-4 3-7 2-7-2-6-7-2-7 7-2 3-3v-6l-1-1-13-1-4-5 47-1-6-10-6-3-6-2zm-2 25 1 3v8l-3 3-7 2 2 4 7 2 8-3 3-2v-17z" fill="#050505"/>
<path transform="translate(672,757)" d="m0 0 3 3 16 28 2 3v3l-9 5-9-3-16-8 10 17v3l-10 5-6-9-15-27 9-6 5 1 19 9-1-4-8-14z"/>
<path transform="translate(122,561)" d="m0 0 3 4 2 5-1 5-10 14-3 5 18-7h2l4 9v3l-37 14h-2l-4-9 1-4 8-12 5-7-20 6-4-9 1-3z"/>
<path transform="translate(153,634)" d="m0 0 4 1 5 9-9 21v2l16-10h2l6 10-33 22-4-1-5-9 10-24-17 11h-2l-6-10 21-14z"/>
<path transform="translate(68,421)" d="m0 0 41 1v13l-19 12-3 2 21 1v12h-27l-15-1 1-13 21-13-21-2v-8z"/>
<path transform="translate(873,399)" d="m0 0h3l1 14-12 8-3 1-1 6 2-1 15-1 1 13-16 2-25 2-1-1-2-22 1-10 5-5 9-1 6 4 2 3 9-8zm-27 18-2 3 1 9h7l1-1-1-9-2-2z"/>
<path transform="translate(826,559)" d="m0 0h8l6 4 2 3 1 5 6-3 15-2-3 10-2 4-18 4-2 4 9 2 7 3-4 12-11-3-29-10 3-10 6-17 5-5zm2 13-4 6-1 4 5 2h4l2-9-2-3z"/>
<path transform="translate(459,679)" d="m0 0h10l6 3 5 5 3 5 1 7-2 8-4 6-8 5h-12l-7-4-5-6-2-5v-9l4-8 6-5z" fill="#030303"/>
<path transform="translate(237,502)" d="m0 0 10 1 6 4 5 6 1 3v12l-4 7-6 5-7 2-9-1-9-6-4-9v-8l3-7 4-5z" fill="#040404"/>
<path transform="translate(622,256)" d="m0 0h8l9 4 6 8 1 3v9l-3 7-5 5-5 3-9 1-8-3-6-5-3-6v-12l3-6 7-6z" fill="#030303"/>
<path transform="translate(698,527)" d="m0 0 10 2 7 6 3 6 1 8-3 9-8 7-5 2h-8l-7-3-5-4-3-5-1-4v-8l4-8 7-6z" fill="#030303"/>
<path transform="translate(633,778)" d="m0 0h2l17 36-1 3-9 4h-2l-6-13v-2l-10 5h-3l6 14v3l-9 4h-3l-13-28-3-7v-3l9-4h3l5 11 5-1 6-3h2l-6-12v-2z"/>
<path transform="translate(340,239)" d="m0 0h11l7 4 6 7 1 3v11l-4 7-7 6-3 1h-11l-6-3-7-8-1-3v-11l3-6 8-7z" fill="#040404"/>
<path transform="translate(93,466)" d="m0 0h15l1 8v19l-4 7-7 4-3 1h-15l-6-3-5-6-2-10-1-17 1-1zm0 13-15 1-1 1v7l4 4h13l4-2 2-4-1-7z"/>
<path transform="translate(408,810)" d="m0 0h8l11 4 5 4 3 6v13l-3 8-4 5-8 4h-9l-10-3-6-5-3-6v-13l3-8 4-5 5-3zm4 10-5 3-3 10 1 7 5 4h6l5-5 2-10-3-7-4-2z"/>
<path transform="translate(784,649)" d="m0 0h7l2 1-3 9-3 3-5 1-3 5 1 7 8 6 2 1h6l5-5 1-7-3-2-2 5-3 2-6-5 7-11 5-5 13 9 1 1-1 11-5 10-8 8-6 2h-7l-9-4-7-6-3-5-1-9 3-9 8-10z"/>
<path transform="translate(759,685)" d="m0 0 9 1 9 6 6 8 1 3v10l-6 10-8 6-2 1h-12l-8-5-7-8-2-5v-7l3-7 5-7 8-5zm-2 12-5 3-1 2v7l7 8 5 2 6-1 4-5-1-7-4-5-7-4z"/>
<path transform="translate(701,738)" d="m0 0h7l8 4 8 9 2 5v11l-4 7-9 7-5 2h-10l-8-5-6-7-3-9 1-8 6-9 10-6zm0 11-6 3-2 4 1 6 6 8 3 2h6l5-4 1-5-4-8-5-5z"/>
<path transform="translate(841,519)" d="m0 0h12l10 4 6 7 2 10-3 12-7 8-4 2-7 1-10-2-7-4-5-6-1-3v-12l4-10 7-6zm3 12-5 3-2 3v6l5 5 7 2 8-1 3-4 1-5-3-5-6-3z"/>
<path transform="translate(557,806)" d="m0 0h4l1 9-16 3h-5l1 7 14-3h6l1 8-15 3h-4l1 8 17-3h5l2 9-32 6h-3l-5-25-2-16 13-3z"/>
<path transform="translate(73,529)" d="m0 0 13 1 30 4 3 7 1 8-36 24-2-2-2-11 4-3h2l-3-15h-7l-3-10zm20 14 1 8 4-1 9-5-4-2z"/>
<path transform="translate(877,442)" d="m0 0h2v13l-7 2 1 15 5 2v13l-9-3-31-12-1-1v-14l9-4zm-17 18-10 3-1 2 13 4 1-1v-8z"/>
<path transform="translate(537,395)" d="m0 0h5v42h2l1-5 4-12h6l2 1-3 12-7 14-4-1-1 26-27-1-10 5-7 2h-34l-11-4-8-5v-1l22-2h7l5 2h8l5-2 21 1 27 2-1-72z" fill="#49428F"/>
<path transform="translate(581,798)" d="m0 0h13l7 5 1 3-8 5-5-2h-7l-3 3v9l3 7 2 2h7l3-3 1-6h12v7l-3 6-5 4-7 3h-13l-6-4-5-6-3-9v-9l4-8 5-4z"/>
<path transform="translate(844,480)" d="m0 0h9l6 4 3 7-1 13 12 1 3 1-1 12-2 1-40-5 1-13 2-13 4-6zm1 13-2 5v4l9 1 1-7-2-3z"/>
<path transform="translate(440,814)" d="m0 0h10l22 2-1 9h-10l-9-1v7l15 1 1 3-1 6-15-1-2 15-1 1h-10l-2-1v-11z"/>
<path transform="translate(425,954)" d="m0 0h50l4 5-7 1-1 36-8-4v-17h-13l-1 7-2 2-6-1-5-4-3-7 2-3 3-1h25l-1-8-33-1z" fill="#0A0A0A"/>
<path transform="translate(804,607)" d="m0 0 4 5 10 18v2l6 2 10 5-2 6-3 6-6-2-10-5-29 3 2-6 4-7 16-1-8-13 2-6z"/>
<path transform="translate(521,812)" d="m0 0h5l1 10-2 1h-11l2 21v11l-12 1-1-1-2-23v-7l-13 1-1-3v-8z"/>
<path transform="translate(717,722)" d="m0 0 4 2 8 8 7 8 3 3 4-2 11-10 7 6-2 4-12 12-8 7h-3l-16-17-11-12 6-7z"/>
<path transform="translate(130,294)" d="m0 0 6 2-3 10-1 3 5 1 2 2-1 6-7 6-5 2h-5l-2-2 1-6 1-4-4-2-1 6-4 6-4 3-7-1-4-4v-6l5-8 8-4h11l5 1 3-9zm-21 17-5 3-1 6 4 2 5-6v-5z"/>
<path transform="translate(654,104)" d="m0 0 6 1 6 4 5 6 1 3v7l-3 5-4 2h-12l-2-1 3 5 3 2h11l6-2-2 5-2 4-4 1h-7l-6-3-6-7-4-13 6 1h12l5-3-1-6-3-2h-5v8h-4l-3-5v-8z"/>
<path transform="translate(229,724)" d="m0 0 6 4 4 5-9 10-9 11-9 10-8-6-2-3 12-14 9-10z"/>
<path transform="translate(145,619)" d="m0 0 4 1 4 8-1 3-27 14-9 4-5-9 1-4 32-16z"/>
<path transform="translate(108,506)" d="m0 0h4l1 5v8l-36 6h-5l-1-5v-8z"/>
<path transform="translate(70,401)" d="m0 0h8l34 5-2 13-18-2-22-3-1-1z"/>
<path transform="translate(460,469)" d="m0 0h15l2 1h12l3-1h14l9 1-5 4-12 4h-34l-11-4-5-3v-1z" fill="#FEFEFE"/>
<path transform="translate(408,420)" d="m0 0h5l4 10 7 16 1 4-5 3h-2l-9-19-3-9v-4z" fill="#060606"/>
<path transform="translate(549,420)" d="m0 0h6l2 1-3 12-7 14-4-1v-9z" fill="#0F0F0F"/>
<path transform="translate(537,395)" d="m0 0h5l1 50-1 27h-4v-2h2l-1-73z" fill="#3A3285"/>
<path transform="translate(719,992)" d="m0 0h8l8 3 5 5 2 3v3l-4-2-6-4-10-2-3-4z" fill="#131313"/>
<path transform="translate(425,449)" d="m0 0h1v20l18-1-2 3-19 1v-22z" fill="#7974AC"/>
<path transform="translate(483,980)" d="m0 0 6 5-2 4-4 3-5-5 2-4z" fill="#030303"/>
<path transform="translate(483,962)" d="m0 0 6 5-2 4-4 3-5-5 2-4z"/>
<path transform="translate(789,308)" d="m0 0 5 1 3 2-2 6-2 2-7-4z"/>
<path transform="translate(620,68)" d="m0 0 3 3 1 5-7 2-3-5 1-3z"/>
<path transform="translate(440,468)" d="m0 0 4 1-2 2h-14l1-2z" fill="#4B4490"/>
<path transform="translate(517,439)" d="m0 0" fill="#9B97C1"/>
<path transform="translate(508,439)" d="m0 0" fill="#9B97C1"/>
<path transform="translate(501,439)" d="m0 0" fill="#9B97C1"/>
<path transform="translate(492,439)" d="m0 0" fill="#9B97C1"/>
<path transform="translate(517,430)" d="m0 0" fill="#9B97C1"/>
<path transform="translate(508,430)" d="m0 0" fill="#9B97C1"/>
<path transform="translate(501,430)" d="m0 0" fill="#FEFEFE"/>
<path transform="translate(492,430)" d="m0 0" fill="#9B97C1"/>
<path transform="translate(512,422)" d="m0 0 2 1z" fill="#FEFEFE"/>
<path transform="translate(487,422)" d="m0 0 2 1z" fill="#FEFEFE"/>
<path transform="translate(517,412)" d="m0 0" fill="#FEFEFE"/>
<path transform="translate(515,412)" d="m0 0" fill="#FEFEFE"/>
<path transform="translate(510,412)" d="m0 0" fill="#FEFEFE"/>
<path transform="translate(508,412)" d="m0 0" fill="#FEFEFE"/>
<path transform="translate(501,412)" d="m0 0" fill="#FEFEFE"/>
<path transform="translate(499,412)" d="m0 0" fill="#FEFEFE"/>
<path transform="translate(492,412)" d="m0 0" fill="#FEFEFE"/>
<path transform="translate(490,412)" d="m0 0" fill="#FEFEFE"/>
<path transform="translate(517,403)" d="m0 0" fill="#9B97C1"/>
<path transform="translate(508,403)" d="m0 0" fill="#9B97C1"/>
<path transform="translate(501,403)" d="m0 0" fill="#9B97C1"/>
<path transform="translate(492,403)" d="m0 0" fill="#9B97C1"/>
<path transform="translate(519,440)" d="m0 0" fill="#FEFEFE"/>
<path transform="translate(515,440)" d="m0 0" fill="#FEFEFE"/>
<path transform="translate(512,440)" d="m0 0" fill="#FEFEFE"/>
<path transform="translate(510,440)" d="m0 0" fill="#FEFEFE"/>
<path transform="translate(506,440)" d="m0 0" fill="#FEFEFE"/>
<path transform="translate(503,440)" d="m0 0" fill="#FEFEFE"/>
<path transform="translate(499,440)" d="m0 0" fill="#393185"/>
<path transform="translate(497,440)" d="m0 0" fill="#FEFEFE"/>
<path transform="translate(494,440)" d="m0 0" fill="#FEFEFE"/>
<path transform="translate(490,440)" d="m0 0" fill="#FEFEFE"/>
<path transform="translate(475,440)" d="m0 0" fill="#FEFEFE"/>
<path transform="translate(468,440)" d="m0 0" fill="#FEFEFE"/>
<path transform="translate(466,440)" d="m0 0" fill="#FEFEFE"/>
<path transform="translate(461,440)" d="m0 0" fill="#FEFEFE"/>
<path transform="translate(459,440)" d="m0 0" fill="#FEFEFE"/>
<path transform="translate(457,440)" d="m0 0" fill="#FEFEFE"/>
<path transform="translate(452,440)" d="m0 0" fill="#FEFEFE"/>
<path transform="translate(450,440)" d="m0 0" fill="#FEFEFE"/>
<path transform="translate(443,440)" d="m0 0" fill="#FEFEFE"/>
<path transform="translate(519,431)" d="m0 0" fill="#FEFEFE"/>
<path transform="translate(515,431)" d="m0 0" fill="#FEFEFE"/>
<path transform="translate(510,431)" d="m0 0" fill="#FEFEFE"/>
<path transform="translate(506,431)" d="m0 0" fill="#FEFEFE"/>
<path transform="translate(503,431)" d="m0 0" fill="#FEFEFE"/>
<path transform="translate(499,431)" d="m0 0" fill="#FEFEFE"/>
<path transform="translate(494,431)" d="m0 0" fill="#FEFEFE"/>
<path transform="translate(490,431)" d="m0 0" fill="#FEFEFE"/>
<path transform="translate(475,431)" d="m0 0" fill="#FEFEFE"/>
<path transform="translate(468,431)" d="m0 0" fill="#FEFEFE"/>
<path transform="translate(466,431)" d="m0 0" fill="#FEFEFE"/>
<path transform="translate(459,431)" d="m0 0" fill="#FEFEFE"/>
<path transform="translate(452,431)" d="m0 0" fill="#FEFEFE"/>
<path transform="translate(450,431)" d="m0 0" fill="#FEFEFE"/>
<path transform="translate(443,431)" d="m0 0" fill="#FEFEFE"/>
<path transform="translate(519,422)" d="m0 0" fill="#FEFEFE"/>
<path transform="translate(517,422)" d="m0 0" fill="#393185"/>
<path transform="translate(515,422)" d="m0 0" fill="#393185"/>
<path transform="translate(510,422)" d="m0 0" fill="#393185"/>
<path transform="translate(508,422)" d="m0 0" fill="#393185"/>
<path transform="translate(506,422)" d="m0 0" fill="#FEFEFE"/>
<path transform="translate(503,422)" d="m0 0" fill="#FEFEFE"/>
<path transform="translate(501,422)" d="m0 0" fill="#393185"/>
<path transform="translate(499,422)" d="m0 0" fill="#393185"/>
<path transform="translate(497,422)" d="m0 0" fill="#FEFEFE"/>
<path transform="translate(494,422)" d="m0 0" fill="#FEFEFE"/>
<path transform="translate(492,422)" d="m0 0" fill="#393185"/>
<path transform="translate(490,422)" d="m0 0" fill="#393185"/>
<path transform="translate(475,422)" d="m0 0" fill="#393185"/>
<path transform="translate(473,422)" d="m0 0" fill="#FEFEFE"/>
<path transform="translate(470,422)" d="m0 0" fill="#FEFEFE"/>
<path transform="translate(468,422)" d="m0 0" fill="#393185"/>
<path transform="translate(466,422)" d="m0 0" fill="#FEFEFE"/>
<path transform="translate(461,422)" d="m0 0" fill="#FEFEFE"/>
<path transform="translate(459,422)" d="m0 0" fill="#393185"/>
<path transform="translate(457,422)" d="m0 0" fill="#FEFEFE"/>
<path transform="translate(452,422)" d="m0 0" fill="#FEFEFE"/>
<path transform="translate(450,422)" d="m0 0" fill="#393185"/>
<path transform="translate(448,422)" d="m0 0" fill="#FEFEFE"/>
<path transform="translate(445,422)" d="m0 0" fill="#FEFEFE"/>
<path transform="translate(443,422)" d="m0 0" fill="#393185"/>
<path transform="translate(519,412)" d="m0 0" fill="#FEFEFE"/>
<path transform="translate(494,412)" d="m0 0" fill="#FEFEFE"/>
<path transform="translate(475,412)" d="m0 0" fill="#FEFEFE"/>
<path transform="translate(468,412)" d="m0 0" fill="#FEFEFE"/>
<path transform="translate(459,412)" d="m0 0" fill="#FEFEFE"/>
<path transform="translate(450,412)" d="m0 0" fill="#FEFEFE"/>
<path transform="translate(443,412)" d="m0 0" fill="#FEFEFE"/>
<path transform="translate(519,403)" d="m0 0" fill="#FEFEFE"/>
<path transform="translate(515,403)" d="m0 0" fill="#FEFEFE"/>
<path transform="translate(510,403)" d="m0 0" fill="#FEFEFE"/>
<path transform="translate(506,403)" d="m0 0" fill="#FEFEFE"/>
<path transform="translate(503,403)" d="m0 0" fill="#FEFEFE"/>
<path transform="translate(499,403)" d="m0 0" fill="#FEFEFE"/>
<path transform="translate(497,403)" d="m0 0" fill="#FEFEFE"/>
<path transform="translate(494,403)" d="m0 0" fill="#FEFEFE"/>
<path transform="translate(490,403)" d="m0 0" fill="#FEFEFE"/>
<path transform="translate(475,403)" d="m0 0" fill="#FEFEFE"/>
<path transform="translate(468,403)" d="m0 0" fill="#FEFEFE"/>
<path transform="translate(466,403)" d="m0 0" fill="#FEFEFE"/>
<path transform="translate(459,403)" d="m0 0" fill="#FEFEFE"/>
<path transform="translate(457,403)" d="m0 0" fill="#FEFEFE"/>
<path transform="translate(452,403)" d="m0 0" fill="#FEFEFE"/>
<path transform="translate(450,403)" d="m0 0" fill="#FEFEFE"/>
<path transform="translate(443,403)" d="m0 0" fill="#FEFEFE"/>
<path transform="translate(519,395)" d="m0 0" fill="#FEFEFE"/>
<path transform="translate(517,395)" d="m0 0" fill="#393185"/>
<path transform="translate(515,395)" d="m0 0" fill="#FEFEFE"/>
<path transform="translate(512,395)" d="m0 0" fill="#FEFEFE"/>
<path transform="translate(510,395)" d="m0 0" fill="#FEFEFE"/>
<path transform="translate(508,395)" d="m0 0" fill="#393185"/>
<path transform="translate(506,395)" d="m0 0" fill="#FEFEFE"/>
<path transform="translate(503,395)" d="m0 0" fill="#FEFEFE"/>
<path transform="translate(501,395)" d="m0 0" fill="#393185"/>
<path transform="translate(499,395)" d="m0 0" fill="#393185"/>
<path transform="translate(497,395)" d="m0 0" fill="#FEFEFE"/>
<path transform="translate(494,395)" d="m0 0" fill="#FEFEFE"/>
<path transform="translate(492,395)" d="m0 0" fill="#393185"/>
<path transform="translate(490,395)" d="m0 0" fill="#FEFEFE"/>
<path transform="translate(475,395)" d="m0 0" fill="#FEFEFE"/>
<path transform="translate(468,395)" d="m0 0" fill="#FEFEFE"/>
<path transform="translate(466,395)" d="m0 0" fill="#FEFEFE"/>
<path transform="translate(461,395)" d="m0 0" fill="#FEFEFE"/>
<path transform="translate(459,395)" d="m0 0" fill="#FEFEFE"/>
<path transform="translate(457,395)" d="m0 0" fill="#FEFEFE"/>
<path transform="translate(452,395)" d="m0 0" fill="#FEFEFE"/>
<path transform="translate(450,395)" d="m0 0" fill="#FEFEFE"/>
<path transform="translate(443,395)" d="m0 0" fill="#FEFEFE"/>
</svg>
