<svg width="400" height="230" viewBox="0 0 400 230" fill="none" xmlns="http://www.w3.org/2000/svg">
<mask id="mask0_25_16" style="mask-type:luminance" maskUnits="userSpaceOnUse" x="0" y="0" width="359" height="167">
<path d="M0 0.22998H358.667V166.827H0V0.22998Z" fill="white"/>
</mask>
<g mask="url(#mask0_25_16)">
<path fill-rule="evenodd" clip-rule="evenodd" d="M128.24 144.344L109.667 146.213L112.219 163.338L99.75 150.439L86.5104 163.338L89.0625 146.213L70.4792 144.344L86.5104 135.662L75.8229 121.124L93.6354 127.219L99.75 110.563L105.604 127.219L122.906 121.124L112.219 135.662L128.24 144.344ZM293.135 165.217L293.896 157.243L285.24 156.534L293.135 152.317L287.792 145.044L296.438 148.561L298.99 140.587L301.781 148.561L310.438 145.044L305.094 152.317L312.979 156.534L303.823 157.243L305.094 165.217L298.99 159.582L293.135 165.217ZM317.052 97.1941L319.083 92.2779L321.125 97.1941H326.979L322.906 100.711L323.667 106.346L319.083 103.299L313.75 106.346L315.781 100.711L310.948 97.1941H317.052ZM259.802 72.5746L255.219 79.3691L263.104 83.5954L253.948 84.295L255.219 92.7379L249.115 86.6429L243.26 92.7379L244.021 84.295L235.375 83.5954L243.26 79.3691L237.917 72.5746L246.563 75.1525L249.115 67.6487L251.917 75.1525L259.802 72.5746ZM298.99 17.4512L301.781 25.4246L310.438 22.8466L305.094 29.6508L312.979 33.8675L303.823 34.5766L305.094 42.55L298.99 36.455L293.135 42.55L293.896 34.5766L285.24 33.8675L293.135 29.6508L287.792 22.8466L296.438 25.4246L298.99 17.4512ZM89.8229 0.325806V37.1546H0V30.82H43.7604L0 10.6471V6.89997L51.1458 30.82H66.4167L0 0.325806H21.8854L82.4375 28.4721V0.325806H89.8229ZM109.667 0.325806H116.281V28.4721L176.844 0.325806H183.969L117.552 30.82H132.823L199.49 0.325806V10.6471L155.469 30.82H199.49V37.1546H109.667V0.325806ZM109.667 92.2779V55.4491H199.49V61.5441H155.469L199.49 81.7171V85.4737L147.583 61.5441H132.823L199.49 92.2779H176.844L116.281 64.1316V92.2779H109.667ZM89.8229 92.2779H82.4375V64.1316L21.8854 92.2779H14.5L81.1667 61.5441H66.4167L0 92.2779V81.7171L43.7604 61.5441H0V55.4491H89.8229V92.2779ZM354.969 60.375L349.625 67.1791L357.51 71.3958L348.354 71.8654L349.625 80.5479L343.521 74.4529L336.896 80.5479L338.427 71.8654L329.771 71.3958L336.896 67.1791L332.323 60.375L340.969 63.4225L343.521 55.4491L346.313 63.4225L354.969 60.375Z" fill="white"/>
</g>
<mask id="mask1_25_16" style="mask-type:luminance" maskUnits="userSpaceOnUse" x="0" y="0" width="202" height="94">
<path d="M0 0.22998H201.333V93.2266H0V0.22998Z" fill="white"/>
</mask>
<g mask="url(#mask1_25_16)">
<path fill-rule="evenodd" clip-rule="evenodd" d="M0 92.2779L66.4167 61.5441H81.1667L14.5 92.2779H0ZM199.49 92.2779L132.823 61.5441H147.583L199.49 85.4737V92.2779ZM199.49 0.325806L132.823 30.82H117.552L183.969 0.325806H199.49ZM0 0.325806L66.4167 30.82H51.1458L0 6.89997V0.325806ZM0 37.1546H89.8229V0.325806H109.667V37.1546H199.49V55.4491H109.667V92.2779H89.8229V55.4491H0V37.1546Z" fill="#ED1C24"/>
</g>
<mask id="mask2_25_16" style="mask-type:luminance" maskUnits="userSpaceOnUse" x="0" y="0" width="400" height="229">
<path d="M0 0.22998H400V228.39H0V0.22998Z" fill="white"/>
</mask>
<g mask="url(#mask2_25_16)">
<path fill-rule="evenodd" clip-rule="evenodd" d="M128.24 144.344L112.219 135.662L122.906 121.124L105.604 127.219L99.75 110.563L93.6354 127.219L75.8229 121.124L86.5104 135.662L70.4792 144.344L89.0625 146.213L86.5104 163.338L99.75 150.439L112.219 163.338L109.667 146.213L128.24 144.344ZM293.135 165.217L298.99 159.582L305.094 165.217L303.823 157.243L312.979 156.534L305.094 152.317L310.438 145.044L301.781 148.561L298.99 140.587L296.438 148.561L287.792 145.044L293.135 152.317L285.24 156.534L293.896 157.243L293.135 165.217ZM298.99 17.4512L296.438 25.4246L287.792 22.8466L293.135 29.6508L285.24 33.8675L293.896 34.5766L293.135 42.55L298.99 36.455L305.094 42.55L303.823 34.5766L312.979 33.8675L305.094 29.6508L310.438 22.8466L301.781 25.4246L298.99 17.4512ZM259.802 72.5746L251.917 75.1525L249.115 67.6487L246.563 75.1525L237.917 72.5746L243.26 79.3691L235.375 83.5954L244.021 84.295L243.26 92.7379L249.115 86.6429L255.219 92.7379L253.948 84.295L263.104 83.5954L255.219 79.3691L259.802 72.5746ZM317.052 97.1941H310.948L315.781 100.711L313.75 106.346L319.083 103.299L323.667 106.346L322.906 100.711L326.979 97.1941H321.125L319.083 92.2779L317.052 97.1941ZM176.844 0.325806L116.281 28.4721V0.325806H176.844ZM82.4375 0.325806V28.4721L21.8854 0.325806H82.4375ZM0 10.6471L43.7604 30.82H0V10.6471ZM0 61.5441H43.7604L0 81.7171V61.5441ZM0 92.2779H21.8854L82.4375 64.1316V92.2779H116.281V64.1316L176.844 92.2779H199.49V81.7171L155.469 61.5441H199.49V30.82H155.469L199.49 10.6471V0.325806H400.01V228.313H0V92.2779ZM354.969 60.375L346.313 63.4225L343.521 55.4491L340.969 63.4225L332.323 60.375L336.896 67.1791L329.771 71.3958L338.427 71.8654L336.896 80.5479L343.521 74.4529L349.625 80.5479L348.354 71.8654L357.51 71.3958L349.625 67.1791L354.969 60.375Z" fill="#2B2D7E"/>
</g>
</svg>
