<svg width="400" height="230" viewBox="0 0 400 230" fill="none" xmlns="http://www.w3.org/2000/svg">
<mask id="mask0_25_40" style="mask-type:luminance" maskUnits="userSpaceOnUse" x="0" y="0" width="400" height="229">
<path d="M0 0.643646H400V228.927H0V0.643646Z" fill="white"/>
</mask>
<g mask="url(#mask0_25_40)">
<path d="M0.125 0.643646H399.875V228.927H0.125V0.643646Z" fill="white"/>
</g>
<mask id="mask1_25_40" style="mask-type:luminance" maskUnits="userSpaceOnUse" x="4" y="1" width="396" height="113">
<path d="M4 1.71643H400V113.856H4V1.71643Z" fill="white"/>
</mask>
<g mask="url(#mask1_25_40)">
<path d="M14.3958 8.79666H399.875M399.875 41.4086H14.3958M14.3958 74.0206H399.875M399.875 106.633H14.3958" stroke="#CC0000" stroke-width="8.23515"/>
</g>
<mask id="mask2_25_40" style="mask-type:luminance" maskUnits="userSpaceOnUse" x="0" y="0" width="202" height="142">
<path d="M0 0.643646H201.333V141.318H0V0.643646Z" fill="white"/>
</mask>
<g mask="url(#mask2_25_40)">
<path d="M0.125 0.643646H200V139.244H0.125V0.643646Z" fill="#000066"/>
</g>
<mask id="mask3_25_40" style="mask-type:luminance" maskUnits="userSpaceOnUse" x="0" y="132" width="400" height="81">
<path d="M0 132.164H400V212.264H0V132.164Z" fill="white"/>
</mask>
<g mask="url(#mask3_25_40)">
<path d="M0.125 139.245H399.875M399.875 171.856H0.125M0.125 204.468H399.875" stroke="#CC0000" stroke-width="8.23515"/>
</g>
<path d="M127.781 32.6298L131.302 52.905L144.937 35.9196L137.625 55.4796L158.677 45.1454L142.01 60.1104L166.323 58.4744L143.594 65.8675L166.323 73.2607L142.01 71.6336L158.677 86.5897L137.625 76.2554L144.937 95.8155L131.302 78.8301L127.781 99.1053L124.25 78.8301L110.615 95.8155L117.927 76.2554L96.875 86.5897L113.552 71.6336L89.2396 73.2607L111.969 65.8675L89.2396 58.4744L113.552 60.1104L96.875 45.1454L117.927 55.4796L110.615 35.9196L124.25 52.905L127.781 32.6298ZM108.01 33.4612C106.417 32.8622 104.781 32.3527 103.104 31.9236C101.427 31.5034 99.7292 31.1637 98.0104 30.9134C96.2812 30.672 94.5417 30.5111 92.8021 30.4485C91.0521 30.377 89.3021 30.4038 87.5625 30.5201C85.8229 30.6363 84.0937 30.8508 82.375 31.1458C80.6667 31.4408 78.9792 31.8252 77.3229 32.2991C75.6667 32.7729 74.0521 33.3361 72.4792 33.9797C70.9062 34.6234 69.3854 35.3385 67.9167 36.1431C66.4583 36.9477 65.0521 37.8238 63.7187 38.7714C62.3854 39.719 61.1146 40.7292 59.9271 41.8109C58.75 42.8926 57.6458 44.0279 56.625 45.2258C55.6042 46.4237 54.6771 47.6664 53.8437 48.9626C53.0104 50.2499 52.2812 51.5819 51.6354 52.9497C51 54.3264 50.4687 55.721 50.0417 57.1424C49.6042 58.5728 49.2812 60.012 49.0625 61.4782C48.8542 62.9353 48.7396 64.4014 48.7396 65.8675C48.7396 67.3426 48.8542 68.8087 49.0625 70.2659C49.2812 71.723 49.6042 73.1713 50.0417 74.5927C50.4687 76.0141 51 77.4176 51.6354 78.7854C52.2812 80.1531 53.0104 81.4852 53.8437 82.7814C54.6771 84.0687 55.6042 85.3203 56.625 86.5093C57.6458 87.7072 58.75 88.8425 59.9271 89.9242C61.1146 91.0059 62.3854 92.025 63.7187 92.9726C65.0521 93.9202 66.4583 94.7963 67.9167 95.592C69.3854 96.3965 70.9062 97.1206 72.4792 97.7643C74.0521 98.408 75.6667 98.9622 77.3229 99.436C78.9792 99.9098 80.6667 100.294 82.375 100.598C84.0937 100.893 85.8229 101.099 87.5625 101.215C89.3021 101.331 91.0521 101.358 92.8021 101.295C94.5417 101.224 96.2812 101.072 98.0104 100.822C99.7292 100.571 101.427 100.241 103.104 99.8115C104.781 99.3913 106.417 98.8818 108.01 98.2828C105.656 99.7042 103.167 100.929 100.552 101.966C97.9271 103.003 95.2083 103.834 92.4062 104.451C89.6042 105.068 86.7604 105.47 83.8646 105.649C80.9792 105.828 78.0937 105.792 75.2083 105.524C72.3333 105.265 69.5 104.782 66.7292 104.076C63.9479 103.378 61.2708 102.467 58.6979 101.358C56.1146 100.25 53.6771 98.9443 51.3854 97.4604C49.0937 95.9674 46.9792 94.3136 45.0417 92.4988C43.1042 90.6841 41.3854 88.7442 39.875 86.6612C38.3646 84.5783 37.0937 82.4059 36.0521 80.1263C35.0208 77.8556 34.2396 75.5134 33.7083 73.1176C33.1875 70.7218 32.9167 68.3081 32.9167 65.8675C32.9167 63.4359 33.1875 61.0133 33.7083 58.6175C34.2396 56.2216 35.0208 53.8884 36.0521 51.6088C37.0937 49.3381 38.3646 47.1568 39.875 45.0738C41.3854 42.9998 43.1042 41.051 45.0417 39.2362C46.9792 37.4215 49.0937 35.7676 51.3854 34.2837C53.6771 32.7907 56.1146 31.4945 58.6979 30.377C61.2708 29.2685 63.9479 28.3656 66.7292 27.6594C69.5 26.9621 72.3333 26.4793 75.2083 26.2111C78.0937 25.9519 80.9792 25.9072 83.8646 26.086C86.7604 26.2648 89.6042 26.6671 92.4062 27.2839C95.2083 27.9097 97.9271 28.7321 100.552 29.7691C103.167 30.8061 105.656 32.0398 108.01 33.4612Z" fill="#FFCC00"/>
</svg>
