<svg width="400" height="230" viewBox="0 0 400 230" fill="none" xmlns="http://www.w3.org/2000/svg">
<mask id="mask0_25_78" style="mask-type:luminance" maskUnits="userSpaceOnUse" x="86" y="74" width="314" height="82">
<path d="M86.6666 74.9503H400V155.05H86.6666V74.9503Z" fill="white"/>
</mask>
<g mask="url(#mask0_25_78)">
<path d="M88.9583 76.7203H399.865V152.806H88.9583V76.7203Z" fill="#F7F7F7"/>
</g>
<mask id="mask1_25_78" style="mask-type:luminance" maskUnits="userSpaceOnUse" x="86" y="152" width="314" height="77">
<path d="M86.6666 152.761H400V228.927H86.6666V152.761Z" fill="white"/>
</mask>
<g mask="url(#mask1_25_78)">
<path d="M88.9583 152.851H399.865V228.927H88.9583V152.851Z" fill="black"/>
</g>
<mask id="mask2_25_78" style="mask-type:luminance" maskUnits="userSpaceOnUse" x="86" y="0" width="314" height="78">
<path d="M86.6666 0.643677H400V77.2388H86.6666V0.643677Z" fill="white"/>
</mask>
<g mask="url(#mask2_25_78)">
<path d="M88.9583 0.643677H399.865V76.7203H88.9583V0.643677Z" fill="#006F2E"/>
</g>
<mask id="mask3_25_78" style="mask-type:luminance" maskUnits="userSpaceOnUse" x="0" y="0" width="90" height="229">
<path d="M0 0.643677H89.3333V228.927H0V0.643677Z" fill="white"/>
</mask>
<g mask="url(#mask3_25_78)">
<path d="M0.135376 0.643677H88.9583V228.927H0.135376V0.643677Z" fill="#F70000"/>
</g>
</svg>
