<svg width="400" height="230" viewBox="0 0 400 230" fill="none" xmlns="http://www.w3.org/2000/svg">
<g clip-path="url(#clip0_25_32)">
<mask id="mask0_25_32" style="mask-type:luminance" maskUnits="userSpaceOnUse" x="0" y="0" width="400" height="230">
<path d="M0.302063 0H399.698V230H0.302063V0Z" fill="white"/>
</mask>
<g mask="url(#mask0_25_32)">
<path fill-rule="evenodd" clip-rule="evenodd" d="M180.135 0V92.1198H0.302063V76.2773H87.9271L0.302063 25.8151V16.4214L102.677 76.2773H133.25L0.302063 0H44.1146L165.323 70.4175V0H180.135ZM29.3021 230L162.812 153.144H133.25L0.302063 230V203.606L87.9271 153.144H0.302063V137.88H180.135V230H165.323V159.582L44.1146 230H29.3021ZM399.698 153.144H311.573L399.698 203.606V213.01L295.76 153.144H266.25L399.698 230H354.375L233.104 159.582V230H219.865V137.88H399.698V153.144ZM399.698 0V25.8151L311.573 76.2773H399.698V92.1198H219.865V0H233.104V70.4175L354.375 0H368.625L235.677 76.2773H266.25L399.698 0Z" fill="#FFFFFC"/>
<path fill-rule="evenodd" clip-rule="evenodd" d="M0.302063 0L133.25 76.2773H102.677L0.302063 16.4214V0ZM399.698 230L266.25 153.144H295.76L399.698 213.01V230ZM0.302063 230L133.25 153.144H162.812L29.3021 230H0.302063ZM399.698 0L266.25 76.2773H235.677L368.625 0H399.698ZM180.135 0H219.865V92.1198H399.698V137.88H219.865V230H180.135V137.88H0.302063V92.1198H180.135V0Z" fill="#D21E26"/>
<path fill-rule="evenodd" clip-rule="evenodd" d="M165.323 0V70.4175L44.1146 0H165.323ZM233.104 0H354.375L233.104 70.4175V0ZM0.302063 25.8151L87.9271 76.2773H0.302063V25.8151ZM0.302063 153.144H87.9271L0.302063 203.606V153.144ZM233.104 230V159.582L354.375 230H233.104ZM165.323 230H44.1146L165.323 159.582V230ZM399.698 76.2773H311.573L399.698 25.8151V76.2773ZM399.698 153.144V203.606L311.573 153.144H399.698Z" fill="#2A2C7B"/>
</g>
</g>
<defs>
<clipPath id="clip0_25_32">
<rect width="400" height="230" fill="white"/>
</clipPath>
</defs>
</svg>
