<svg width="400" height="230" viewBox="0 0 400 230" fill="none" xmlns="http://www.w3.org/2000/svg">
<g clip-path="url(#clip0_25_99)">
<mask id="mask0_25_99" style="mask-type:luminance" maskUnits="userSpaceOnUse" x="0" y="0" width="400" height="230">
<path d="M0 0.858154H400V229.142H0V0.858154Z" fill="white"/>
</mask>
<g mask="url(#mask0_25_99)">
<path d="M399.469 229.169H0.510406V0.88501H399.469V229.169Z" fill="white"/>
</g>
<mask id="mask1_25_99" style="mask-type:luminance" maskUnits="userSpaceOnUse" x="0" y="141" width="400" height="19">
<path d="M0 141.318H400V159.627H0V141.318Z" fill="white"/>
</mask>
<g mask="url(#mask1_25_99)">
<path d="M399.469 158.947H0.510406V141.381H399.469V158.947Z" fill="#D21C31"/>
</g>
<mask id="mask2_25_99" style="mask-type:luminance" maskUnits="userSpaceOnUse" x="201" y="104" width="199" height="22">
<path d="M201.333 104.702H400V125.299H201.333V104.702Z" fill="white"/>
</mask>
<g mask="url(#mask2_25_99)">
<path d="M399.469 123.886H202.625V106.239H399.469V123.886Z" fill="#D21C31"/>
</g>
<mask id="mask3_25_99" style="mask-type:luminance" maskUnits="userSpaceOnUse" x="201" y="70" width="199" height="21">
<path d="M201.333 70.3732H400V90.9702H201.333V70.3732Z" fill="white"/>
</mask>
<g mask="url(#mask3_25_99)">
<path d="M399.469 88.6906H202.625V71.0437H399.469V88.6906Z" fill="#D21C31"/>
</g>
<mask id="mask4_25_99" style="mask-type:luminance" maskUnits="userSpaceOnUse" x="201" y="33" width="199" height="22">
<path d="M201.333 33.7562H400V54.3532H201.333V33.7562Z" fill="white"/>
</mask>
<g mask="url(#mask4_25_99)">
<path d="M399.469 53.6291H202.625V35.9822H399.469V53.6291Z" fill="#D21C31"/>
</g>
<mask id="mask5_25_99" style="mask-type:luminance" maskUnits="userSpaceOnUse" x="201" y="0" width="199" height="21">
<path d="M201.333 0.858154H400V20.0248H201.333V0.858154Z" fill="white"/>
</mask>
<g mask="url(#mask5_25_99)">
<path d="M399.469 18.4604H202.646V0.88501H399.469V18.4604Z" fill="#D21C31"/>
</g>
<mask id="mask6_25_99" style="mask-type:luminance" maskUnits="userSpaceOnUse" x="0" y="175" width="400" height="22">
<path d="M0 175.647H400V196.244H0V175.647Z" fill="white"/>
</mask>
<g mask="url(#mask6_25_99)">
<path d="M399.469 194.071H0.510406V176.496H399.469V194.071Z" fill="#D21C31"/>
</g>
<mask id="mask7_25_99" style="mask-type:luminance" maskUnits="userSpaceOnUse" x="0" y="209" width="400" height="21">
<path d="M0 209.975H400V229.142H0V209.975Z" fill="white"/>
</mask>
<g mask="url(#mask7_25_99)">
<path d="M399.469 229.169H0.510406V211.602H399.469V229.169Z" fill="#D21C31"/>
</g>
<mask id="mask8_25_99" style="mask-type:luminance" maskUnits="userSpaceOnUse" x="0" y="0" width="204" height="126">
<path d="M0 0.858154H204V125.298H0V0.858154Z" fill="white"/>
</mask>
<g mask="url(#mask8_25_99)">
<path d="M203.125 123.895H0.510406V0.88501H203.125V123.895Z" fill="#363570"/>
</g>
<path d="M17.8229 5.79297L19.7083 10.7813H25.8229L20.875 13.8655L22.7708 18.8628L17.8229 15.7696L12.875 18.8628L14.7604 13.8655L9.8125 10.7813H15.9271L17.8229 5.79297Z" fill="white"/>
<path d="M51.3021 5.79297L53.1979 10.7813H59.3125L54.3646 13.8655L56.25 18.8628L51.3021 15.7696L46.3542 18.8628L48.25 13.8655L43.3021 10.7813H49.4167L51.3021 5.79297Z" fill="white"/>
<path d="M84.7917 5.79297L86.6875 10.7813H92.8021L87.8542 13.8655L89.7396 18.8628L84.7917 15.7696L79.8437 18.8628L81.7396 13.8655L76.7917 10.7813H82.9062L84.7917 5.79297Z" fill="white"/>
<path d="M118.281 5.79297L120.177 10.7813H126.292L121.344 13.8655L123.229 18.8628L118.281 15.7696L113.333 18.8628L115.229 13.8655L110.281 10.7813H116.396L118.281 5.79297Z" fill="white"/>
<path d="M151.771 5.79297L153.656 10.7813H159.781L154.833 13.8655L156.719 18.8628L151.771 15.7696L146.823 18.8628L148.708 13.8655L143.76 10.7813H149.885L151.771 5.79297Z" fill="white"/>
<path d="M185.26 5.79297L187.146 10.7813H193.26L188.313 13.8655L190.208 18.8628L185.26 15.7696L180.313 18.8628L182.198 13.8655L177.25 10.7813H183.365L185.26 5.79297Z" fill="white"/>
<path d="M34.5833 18.0671L36.4687 23.0644H42.5937L37.6458 26.1486L39.5312 31.1459L34.5833 28.0528L29.6354 31.1459L31.5208 26.1486L26.5729 23.0644H32.6979L34.5833 18.0671Z" fill="white"/>
<path d="M68.0729 18.0671L69.9583 23.0644H76.0729L71.125 26.1486L73.0208 31.1459L68.0729 28.0528L63.125 31.1459L65.0104 26.1486L60.0625 23.0644H66.1771L68.0729 18.0671Z" fill="white"/>
<path d="M101.563 18.0671L103.448 23.0644H109.563L104.615 26.1486L106.51 31.1459L101.563 28.0528L96.6146 31.1459L98.5 26.1486L93.5521 23.0644H99.6667L101.563 18.0671Z" fill="white"/>
<path d="M135.052 18.0671L136.937 23.0644H143.052L138.104 26.1486L140 31.1459L135.052 28.0528L130.104 31.1459L131.99 26.1486L127.042 23.0644H133.156L135.052 18.0671Z" fill="white"/>
<path d="M168.531 18.0671L170.427 23.0644H176.542L171.594 26.1486L173.479 31.1459L168.531 28.0528L163.583 31.1459L165.479 26.1486L160.531 23.0644H166.646L168.531 18.0671Z" fill="white"/>
<path d="M34.5833 42.7764L36.4687 47.7736H42.5937L37.6458 50.8578L39.5312 55.8462L34.5833 52.762L29.6354 55.8462L31.5208 50.8578L26.5729 47.7736H32.6979L34.5833 42.7764Z" fill="white"/>
<path d="M68.0729 42.7764L69.9583 47.7736H76.0729L71.125 50.8578L73.0208 55.8462L68.0729 52.762L63.125 55.8462L65.0104 50.8578L60.0625 47.7736H66.1771L68.0729 42.7764Z" fill="white"/>
<path d="M101.563 42.7764L103.448 47.7736H109.563L104.615 50.8578L106.51 55.8462L101.563 52.762L96.6146 55.8462L98.5 50.8578L93.5521 47.7736H99.6667L101.563 42.7764Z" fill="white"/>
<path d="M135.052 42.7764L136.937 47.7736H143.052L138.104 50.8578L140 55.8462L135.052 52.762L130.104 55.8462L131.99 50.8578L127.042 47.7736H133.156L135.052 42.7764Z" fill="white"/>
<path d="M168.531 42.7764L170.427 47.7736H176.542L171.594 50.8578L173.479 55.8462L168.531 52.762L163.583 55.8462L165.479 50.8578L160.531 47.7736H166.646L168.531 42.7764Z" fill="white"/>
<path d="M34.5833 67.4856L36.4687 72.4739H42.5937L37.6458 75.5581L39.5312 80.5554L34.5833 77.4712L29.6354 80.5554L31.5208 75.5581L26.5729 72.4739H32.6979L34.5833 67.4856Z" fill="white"/>
<path d="M68.0729 67.4856L69.9583 72.4739H76.0729L71.125 75.5581L73.0208 80.5554L68.0729 77.4712L63.125 80.5554L65.0104 75.5581L60.0625 72.4739H66.1771L68.0729 67.4856Z" fill="white"/>
<path d="M101.563 67.4856L103.448 72.4739H109.563L104.615 75.5581L106.51 80.5554L101.563 77.4712L96.6146 80.5554L98.5 75.5581L93.5521 72.4739H99.6667L101.563 67.4856Z" fill="white"/>
<path d="M135.052 67.4856L136.937 72.4739H143.052L138.104 75.5581L140 80.5554L135.052 77.4712L130.104 80.5554L131.99 75.5581L127.042 72.4739H133.156L135.052 67.4856Z" fill="white"/>
<path d="M168.531 67.4856L170.427 72.4739H176.542L171.594 75.5581L173.479 80.5554L168.531 77.4712L163.583 80.5554L165.479 75.5581L160.531 72.4739H166.646L168.531 67.4856Z" fill="white"/>
<path d="M34.5833 92.1949L36.4687 97.1833H42.5937L37.6458 100.267L39.5312 105.265L34.5833 102.181L29.6354 105.265L31.5208 100.267L26.5729 97.1833H32.6979L34.5833 92.1949Z" fill="white"/>
<path d="M68.0729 92.1949L69.9583 97.1833H76.0729L71.125 100.267L73.0208 105.265L68.0729 102.181L63.125 105.265L65.0104 100.267L60.0625 97.1833H66.1771L68.0729 92.1949Z" fill="white"/>
<path d="M101.563 92.1949L103.448 97.1833H109.563L104.615 100.267L106.51 105.265L101.563 102.181L96.6146 105.265L98.5 100.267L93.5521 97.1833H99.6667L101.563 92.1949Z" fill="white"/>
<path d="M135.052 92.1949L136.937 97.1833H143.052L138.104 100.267L140 105.265L135.052 102.181L130.104 105.265L131.99 100.267L127.042 97.1833H133.156L135.052 92.1949Z" fill="white"/>
<path d="M168.531 92.1949L170.427 97.1833H176.542L171.594 100.267L173.479 105.265L168.531 102.181L163.583 105.265L165.479 100.267L160.531 97.1833H166.646L168.531 92.1949Z" fill="white"/>
<path d="M17.8229 30.4486L19.7083 35.4369H25.8229L20.875 38.5301L22.7708 43.5184L17.8229 40.4342L12.875 43.5184L14.7604 38.5301L9.8125 35.4369H15.9271L17.8229 30.4486Z" fill="white"/>
<path d="M51.3021 30.4486L53.1979 35.4369H59.3125L54.3646 38.5301L56.25 43.5184L51.3021 40.4342L46.3542 43.5184L48.25 38.5301L43.3021 35.4369H49.4167L51.3021 30.4486Z" fill="white"/>
<path d="M84.7917 30.4486L86.6875 35.4369H92.8021L87.8542 38.5301L89.7396 43.5184L84.7917 40.4342L79.8437 43.5184L81.7396 38.5301L76.7917 35.4369H82.9062L84.7917 30.4486Z" fill="white"/>
<path d="M118.281 30.4486L120.177 35.4369H126.292L121.344 38.5301L123.229 43.5184L118.281 40.4342L113.333 43.5184L115.229 38.5301L110.281 35.4369H116.396L118.281 30.4486Z" fill="white"/>
<path d="M151.771 30.4486L153.656 35.4369H159.781L154.833 38.5301L156.719 43.5184L151.771 40.4342L146.823 43.5184L148.708 38.5301L143.76 35.4369H149.885L151.771 30.4486Z" fill="white"/>
<path d="M185.26 30.4486L187.146 35.4369H193.26L188.313 38.5301L190.208 43.5184L185.26 40.4342L180.313 43.5184L182.198 38.5301L177.25 35.4369H183.365L185.26 30.4486Z" fill="white"/>
<path d="M17.8229 55.1041L19.7083 60.1014H25.8229L20.875 63.1856L22.7708 68.1739L17.8229 65.0897L12.875 68.1739L14.7604 63.1856L9.8125 60.1014H15.9271L17.8229 55.1041Z" fill="white"/>
<path d="M51.3021 55.1041L53.1979 60.1014H59.3125L54.3646 63.1856L56.25 68.1739L51.3021 65.0897L46.3542 68.1739L48.25 63.1856L43.3021 60.1014H49.4167L51.3021 55.1041Z" fill="white"/>
<path d="M84.7917 55.1041L86.6875 60.1014H92.8021L87.8542 63.1856L89.7396 68.1739L84.7917 65.0897L79.8437 68.1739L81.7396 63.1856L76.7917 60.1014H82.9062L84.7917 55.1041Z" fill="white"/>
<path d="M118.281 55.1041L120.177 60.1014H126.292L121.344 63.1856L123.229 68.1739L118.281 65.0897L113.333 68.1739L115.229 63.1856L110.281 60.1014H116.396L118.281 55.1041Z" fill="white"/>
<path d="M151.771 55.1041L153.656 60.1014H159.781L154.833 63.1856L156.719 68.1739L151.771 65.0897L146.823 68.1739L148.708 63.1856L143.76 60.1014H149.885L151.771 55.1041Z" fill="white"/>
<path d="M185.26 55.1041L187.146 60.1014H193.26L188.313 63.1856L190.208 68.1739L185.26 65.0897L180.313 68.1739L182.198 63.1856L177.25 60.1014H183.365L185.26 55.1041Z" fill="white"/>
<path d="M17.8229 79.7688L19.7083 84.7571H25.8229L20.875 87.8413L22.7708 92.8386L17.8229 89.7544L12.875 92.8386L14.7604 87.8413L9.8125 84.7571H15.9271L17.8229 79.7688Z" fill="white"/>
<path d="M51.3021 79.7688L53.1979 84.7571H59.3125L54.3646 87.8413L56.25 92.8386L51.3021 89.7544L46.3542 92.8386L48.25 87.8413L43.3021 84.7571H49.4167L51.3021 79.7688Z" fill="white"/>
<path d="M84.7917 79.7688L86.6875 84.7571H92.8021L87.8542 87.8413L89.7396 92.8386L84.7917 89.7544L79.8437 92.8386L81.7396 87.8413L76.7917 84.7571H82.9062L84.7917 79.7688Z" fill="white"/>
<path d="M118.281 79.7688L120.177 84.7571H126.292L121.344 87.8413L123.229 92.8386L118.281 89.7544L113.333 92.8386L115.229 87.8413L110.281 84.7571H116.396L118.281 79.7688Z" fill="white"/>
<path d="M151.771 79.7688L153.656 84.7571H159.781L154.833 87.8413L156.719 92.8386L151.771 89.7544L146.823 92.8386L148.708 87.8413L143.76 84.7571H149.885L151.771 79.7688Z" fill="white"/>
<path d="M185.26 79.7688L187.146 84.7571H193.26L188.313 87.8413L190.208 92.8386L185.26 89.7544L180.313 92.8386L182.198 87.8413L177.25 84.7571H183.365L185.26 79.7688Z" fill="white"/>
<path d="M17.8229 104.424L19.7083 109.422H25.8229L20.875 112.506L22.7708 117.494L17.8229 114.41L12.875 117.494L14.7604 112.506L9.8125 109.422H15.9271L17.8229 104.424Z" fill="white"/>
<path d="M51.3021 104.424L53.1979 109.422H59.3125L54.3646 112.506L56.25 117.494L51.3021 114.41L46.3542 117.494L48.25 112.506L43.3021 109.422H49.4167L51.3021 104.424Z" fill="white"/>
<path d="M84.7917 104.424L86.6875 109.422H92.8021L87.8542 112.506L89.7396 117.494L84.7917 114.41L79.8437 117.494L81.7396 112.506L76.7917 109.422H82.9062L84.7917 104.424Z" fill="white"/>
<path d="M118.281 104.424L120.177 109.422H126.292L121.344 112.506L123.229 117.494L118.281 114.41L113.333 117.494L115.229 112.506L110.281 109.422H116.396L118.281 104.424Z" fill="white"/>
<path d="M151.771 104.424L153.656 109.422H159.781L154.833 112.506L156.719 117.494L151.771 114.41L146.823 117.494L148.708 112.506L143.76 109.422H149.885L151.771 104.424Z" fill="white"/>
<path d="M185.26 104.424L187.146 109.422H193.26L188.313 112.506L190.208 117.494L185.26 114.41L180.313 117.494L182.198 112.506L177.25 109.422H183.365L185.26 104.424Z" fill="white"/>
</g>
<defs>
<clipPath id="clip0_25_99">
<rect width="400" height="230" fill="white"/>
</clipPath>
</defs>
</svg>
